<svg xmlns="http://www.w3.org/2000/svg" width="55.294" height="55.324" viewBox="0 0 55.294 55.324"><defs><style>.a{fill:#c7c7c5;}.b{fill:#cfcfcd;}.c{fill:#d6d6d4;}.d{fill:#e0e0de;}.e{fill:#708bc6;}.f{fill:#ebebe9;}.g{fill:#0ab5b5;}</style></defs><rect class="a" width="43.925" height="39.15" rx="19.575" transform="translate(11.369 11.459)"/><rect class="b" width="43.925" height="39.15" rx="19.575" transform="translate(11.369 7.639)"/><rect class="c" width="43.925" height="39.15" rx="19.575" transform="translate(11.369 3.82)"/><path class="d" d="M154.376,95.15H122.865A2.865,2.865,0,0,1,120,92.286V58.865A2.865,2.865,0,0,1,122.865,56h38.2a2.865,2.865,0,0,1,2.865,2.865V85.6Z" transform="translate(-108.631 -52.18)"/><path class="e" d="M122.865,56h38.2a2.865,2.865,0,0,1,2.865,2.865V66.5H120V58.865A2.865,2.865,0,0,1,122.865,56Z" transform="translate(-108.631 -52.18)"/><path class="f" d="M408,313.549v-6.684A2.865,2.865,0,0,1,410.865,304h6.684Z" transform="translate(-362.255 -270.579)"/><rect class="c" width="3.82" height="7.639" rx="1.91" transform="translate(17.098 0)"/><rect class="c" width="3.82" height="7.639" rx="1.91" transform="translate(26.647 0)"/><rect class="c" width="3.82" height="7.639" rx="1.91" transform="translate(36.196 0)"/><rect class="c" width="3.82" height="7.639" rx="1.91" transform="translate(45.745 0)"/><path class="e" d="M55.219,252.033l-5.442,1.086a14.278,14.278,0,1,0,2.449,3.946Z" transform="translate(-24.753 -221.476)"/><path class="f" d="M89.188,301.729H83.459V296H77.729v5.729H72v5.729h5.729v5.729h5.729v-5.729h5.729Z" transform="translate(-66.361 -263.534)"/><g transform="translate(17.098 19.098)"><path class="g" d="M232,184h1.91v1.91H232Z" transform="translate(-224.361 -184)"/><path class="g" d="M168,184h1.91v1.91H168Z" transform="translate(-168 -184)"/><path class="g" d="M360,184h1.91v1.91H360Z" transform="translate(-337.083 -184)"/><path class="g" d="M424,184h1.91v1.91H424Z" transform="translate(-393.444 -184)"/><path class="g" d="M296,184h1.91v1.91H296Z" transform="translate(-280.722 -184)"/><path class="g" d="M232,248h1.91v1.91H232Z" transform="translate(-224.361 -240.361)"/><path class="g" d="M360,248h1.91v1.91H360Z" transform="translate(-337.083 -240.361)"/><path class="g" d="M424,248h1.91v1.91H424Z" transform="translate(-393.444 -240.361)"/><path class="g" d="M296,248h1.91v1.91H296Z" transform="translate(-280.722 -240.361)"/><path class="g" d="M360,312h1.91v1.91H360Z" transform="translate(-337.083 -296.722)"/><path class="g" d="M296,312h1.91v1.91H296Z" transform="translate(-280.722 -296.722)"/></g></svg>