<svg xmlns="http://www.w3.org/2000/svg" width="55.76" height="51.434" viewBox="0 0 55.76 51.434"><defs><style>.a{fill:#e0e0de;}.b{fill:#cacac8;}.c{fill:#c6caca;}.d{fill:#024a68;}.e{fill:#0d8d8d;}.f{fill:#0ab5b5;}.g{fill:#2eaae6;}.h{fill:#2999cf;}</style></defs><path class="a" d="M39.176,28.424l-4.365-9.14H4.8a4.8,4.8,0,0,0-4.8,4.8V55.237a4.8,4.8,0,0,0,4.8,4.8H43.33a4.8,4.8,0,0,0,4.8-4.8V32.6Z" transform="translate(0 -19.283)"/><path class="b" d="M310.279,19.279v8.836a4.484,4.484,0,0,0,4.484,4.484H323.6Z" transform="translate(-275.468 -19.279)"/><path class="c" d="M3.529,40.616a37.909,37.909,0,0,1,6.508-21.331H4.8a4.8,4.8,0,0,0-4.8,4.8V55.238a4.8,4.8,0,0,0,4.8,4.8h9.11C7.529,55.218,3.529,48.3,3.529,40.616Z" transform="translate(0 -19.284)"/><g transform="translate(5.773 3.926)"><path class="d" d="M52.293,65.254a.841.841,0,0,0,.841-.841v-3.48l4.691,5.33-2.618,2.3a.841.841,0,1,0,1.112,1.263l2.618-2.3,2.3,2.618a.841.841,0,1,0,1.263-1.112l-2.3-2.618,2.618-2.3a.841.841,0,0,0-1.112-1.263l-2.618,2.3L55.225,60.76a3.251,3.251,0,0,0-.458-6.484H52.293a.841.841,0,0,0-.841.841v9.3A.841.841,0,0,0,52.293,65.254Zm2.473-9.3a1.58,1.58,0,1,1,0,3.149c-.372,0-1.062,0-1.616.006-.009-1.6,0-1.165-.01-3.155Z" transform="translate(-51.452 -54.276)"/><path class="d" d="M52.293,227.7H82.46a.841.841,0,1,0,0-1.683H52.293a.841.841,0,1,0,0,1.683Z" transform="translate(-51.452 -206.746)"/><path class="d" d="M82.46,272.015H52.293a.841.841,0,1,0,0,1.683H82.46a.841.841,0,1,0,0-1.683Z" transform="translate(-51.452 -247.586)"/><path class="d" d="M62.239,318.017H52.293a.841.841,0,0,0,0,1.683h9.945a.841.841,0,0,0,0-1.683Z" transform="translate(-51.452 -288.427)"/></g><path class="e" d="M297.112,331.221l-4.486,4.486a7.718,7.718,0,0,1-10.915-10.915l4.486-4.486,8.831,2.084Z" transform="translate(-248.099 -286.533)"/><path class="f" d="M285.72,331.924a15.451,15.451,0,0,1,4.763-10.605l-4.286-1.012-4.486,4.486a7.717,7.717,0,0,0,4.748,13.142A20.452,20.452,0,0,1,285.72,331.924Z" transform="translate(-248.099 -286.534)"/><path class="g" d="M354.983,273.352l-4.486,4.485-10.915-10.915,4.486-4.486a7.718,7.718,0,0,1,10.915,10.916Z" transform="translate(-301.483 -233.148)"/><path class="h" d="M354.919,262.381a7.717,7.717,0,0,0-10.851.061l-4.486,4.486,2.761,2.762A19.048,19.048,0,0,1,354.919,262.381Z" transform="translate(-301.484 -233.155)"/></svg>