<svg xmlns="http://www.w3.org/2000/svg" width="81.426" height="52.223" viewBox="0 0 81.426 52.223"><defs><style>.a{fill:#e0e0de;}.b{fill:#708bc6;}.c{fill:#e1e6e9;}.d{fill:#6eaaad;}.e{fill:#707583;}.f{fill:#323c6b;}.g{fill:#9297ab;}.h{fill:#c6caca;}.i{fill:#e4fffa;}.j{fill:#fff;}</style></defs><rect class="a" width="44.51" height="74.919" rx="3.918" transform="translate(2.802 48.366) rotate(-90)"/><path class="b" d="M0,0H44.51V48.844H0Z" transform="translate(13.268 48.367) rotate(-90)"/><path class="c" d="M13.148,14.75H6.684a4.281,4.281,0,0,0-4.154,3.2,4.173,4.173,0,0,1,1.179-.165h9.439Z" transform="translate(0.089 -10.398)"/><path class="d" d="M12.25,14.75H60.543v3.03H12.25Z" transform="translate(1.078 -10.398)"/><path class="a" d="M67.451,14.75H56.833v3.03h7.632A4.319,4.319,0,0,1,68.784,22.1V57.972a4.119,4.119,0,0,1-.154,1.113,4.3,4.3,0,0,0,3.14-4.143V19.069A4.319,4.319,0,0,0,67.451,14.75Z" transform="translate(5.614 -10.398)"/><path class="e" d="M41.3,24.109a3.015,3.015,0,0,0,.044-.551,4.482,4.482,0,0,0-8.946,0c0,.121.011.253.022.375" transform="translate(3.128 -9.929)"/><g transform="translate(0)"><path class="f" d="M41.354,24.709a.524.524,0,0,1-.1-.009.551.551,0,0,1-.441-.641,2.5,2.5,0,0,0,.034-.452,3.932,3.932,0,0,0-7.843,0c0,.11.01.22.02.331a.551.551,0,0,1-.5.6.564.564,0,0,1-.6-.5c-.012-.138-.023-.286-.023-.423a5.032,5.032,0,0,1,10.047,0,3.678,3.678,0,0,1-.052.65.551.551,0,0,1-.544.447Z" transform="translate(3.078 -9.979)"/><path class="f" d="M66.888,58.865h-.637a.551.551,0,0,1,0-1.1h.641a7.1,7.1,0,0,0,6.923-5.634.551.551,0,1,1,1.079.22A8.2,8.2,0,0,1,66.888,58.865Z" transform="translate(6.516 -6.642)"/><path class="f" d="M63.005,58.3H61.56a.551.551,0,0,1,0-1.1h1.447a.551.551,0,0,1,0,1.1Z" transform="translate(6.039 -6.079)"/><path class="f" d="M.7,15.7a.551.551,0,0,1-.476-.826A8.188,8.188,0,0,1,7.273,10.8h3.563a.551.551,0,0,1,0,1.1H7.271A7.081,7.081,0,0,0,1.18,15.427.551.551,0,0,1,.7,15.7Z" transform="translate(-0.153 -10.8)"/><path class="f" d="M14.135,11.9H12.483a.551.551,0,0,1,0-1.1h1.653a.551.551,0,1,1,0,1.1Z" transform="translate(1.046 -10.8)"/><path class="f" d="M7.414,37.99a.551.551,0,0,1-.551-.551V32.151a.551.551,0,0,1,1.1,0v5.288A.551.551,0,0,1,7.414,37.99Z" transform="translate(0.53 -8.684)"/></g><circle class="g" cx="3.03" cy="3.03" r="3.03" transform="translate(66.703 23.082)"/><path class="f" d="M63.776,38.411a3.581,3.581,0,1,1,3.585-3.581A3.581,3.581,0,0,1,63.776,38.411Zm0-6.06a2.479,2.479,0,1,0,2.483,2.479A2.479,2.479,0,0,0,63.776,32.352Z" transform="translate(5.957 -8.719)"/><path class="e" d="M29.174,48.36a16.662,16.662,0,0,0-5.134-1.212c2.6-4.5,2.809-9.178,3.261-14.907,0-6.016,4.583-9.982,10.213-9.982s10.213,3.966,10.213,9.982h.022c.452,5.729.661,10.412,3.261,14.907a18.125,18.125,0,0,0-5.5,1.091" transform="translate(2.278 -9.634)"/><path class="h" d="M50.41,47.149a16.021,16.021,0,0,0-3.063.386C45.33,43.392,45.11,39.029,44.7,33.8H44.68c0-6.016-4.572-9.982-10.213-9.982a10.946,10.946,0,0,0-4.517.948,10.5,10.5,0,0,1,6.963-2.5c5.641,0,10.213,3.966,10.213,9.982h.022C47.6,37.971,47.809,42.654,50.41,47.149Z" transform="translate(2.879 -9.634)"/><path class="a" d="M44.235,33.713s.881,7.538-5.459,9.451a6.309,6.309,0,0,1-3.636,0c-6.338-1.913-5.459-9.451-5.459-9.451s1.081-4.766,5.178-4.478,5.211-1.983,5.211-1.983.465,4.838,4.105,6.463Z" transform="translate(2.847 -9.126)"/><path class="f" d="M37.007,44.035a6.849,6.849,0,0,1-1.985-.293c-6.7-2.021-5.855-9.962-5.848-10.041H29.2a8.246,8.246,0,0,1,1.022-2.448,4.98,4.98,0,0,1,4.715-2.515c3.623.243,4.641-1.606,4.681-1.686a.551.551,0,0,1,1.039.2c0,.045.48,4.5,3.736,5.992a.594.594,0,0,1,.441.459c.009.08.854,8.02-5.848,10.042a6.846,6.846,0,0,1-1.978.293ZM30.271,33.856c-.055.58-.543,7.135,5.076,8.831a5.74,5.74,0,0,0,3.321,0c5.1-1.542,5.165-7.111,5.094-8.53a8.286,8.286,0,0,1-3.986-5.624,6.565,6.565,0,0,1-4.912,1.3C31.442,29.589,30.367,33.479,30.271,33.856Z" transform="translate(2.796 -9.177)"/><path class="f" d="M73.349,59.412H7.063A4.873,4.873,0,0,1,2.2,54.544V18.669A4.873,4.873,0,0,1,7.063,13.8H73.349a4.873,4.873,0,0,1,4.872,4.868V54.544A4.873,4.873,0,0,1,73.349,59.412ZM7.063,14.9A3.77,3.77,0,0,0,3.3,18.669V54.544a3.77,3.77,0,0,0,3.761,3.767H73.349a3.77,3.77,0,0,0,3.77-3.767V18.669a3.77,3.77,0,0,0-3.77-3.767Z" transform="translate(0.055 -10.495)"/><path class="f" d="M61.09,59.412H12.251a.551.551,0,0,1-.551-.551V14.351a.551.551,0,0,1,.551-.551H61.09a.551.551,0,0,1,.551.551V58.862A.551.551,0,0,1,61.09,59.412ZM12.8,58.311H60.539V14.9H12.8Z" transform="translate(1.022 -10.495)"/><path class="f" d="M29.225,48.962a.551.551,0,0,1-.22-.044,16.079,16.079,0,0,0-4.914-1.169.625.625,0,0,1-.481-.273.551.551,0,0,1,0-.551c2.373-4.1,2.7-8.293,3.1-13.6L26.8,32.25c0-6.06,4.524-10.49,10.762-10.49,6.185,0,10.687,4.356,10.764,10.38a.467.467,0,0,1,.021.11l.084,1.07c.409,5.308.732,9.5,3.1,13.6a.551.551,0,0,1,0,.551.629.629,0,0,1-.481.273A18.416,18.416,0,0,0,45.764,48.8a.551.551,0,1,1-.409-1.024,19.182,19.182,0,0,1,4.8-1.083c-2.114-4.085-2.445-8.373-2.823-13.292l-.072-.927a.5.5,0,0,1-.034-.184A9.236,9.236,0,0,0,37.56,22.86,9.236,9.236,0,0,0,27.9,32.291l-.085,1.117c-.38,4.923-.711,9.213-2.831,13.3a19.024,19.024,0,0,1,4.464,1.2.551.551,0,0,1-.22,1.058Z" transform="translate(2.226 -9.685)"/><path class="i" d="M53.644,55.84V51.386a5.477,5.477,0,0,0-.362-2.066,5.059,5.059,0,0,0-2.7-2.817l-9.124-3c-1.887,1.824-5.5,1.516-7.424,0l-9.122,3a5.1,5.1,0,0,0-2.7,2.817,5.478,5.478,0,0,0-.362,2.066V55.84Z" transform="translate(2.055 -7.473)"/><path class="i" d="M53.646,51.14v4.451H21.85V52.826h28.3V48.375A5.473,5.473,0,0,0,49.79,46.3a3.673,3.673,0,0,0-.165-.364l.959.32a5.08,5.08,0,0,1,2.7,2.809A5.474,5.474,0,0,1,53.646,51.14Z" transform="translate(2.055 -7.224)"/><path class="f" d="M47.478,55.788H27.068a.551.551,0,0,1-.551-.551v-5.27a.551.551,0,0,1,1.1,0v4.719H46.927V49.968a.551.551,0,0,1,1.1,0v5.27A.551.551,0,0,1,47.478,55.788Z" transform="translate(2.53 -6.871)"/><path class="f" d="M53.7,56.441H21.9a.551.551,0,0,1-.551-.551V51.437a6,6,0,0,1,.4-2.273,5.612,5.612,0,0,1,2.993-3.116l9.167-3.021a.556.556,0,0,1,.513.09c1.718,1.353,5.018,1.663,6.7.037a.551.551,0,0,1,.551-.128l9.123,3a5.6,5.6,0,0,1,3.043,3.138,6,6,0,0,1,.4,2.271v4.45A.551.551,0,0,1,53.7,56.441Zm-31.242-1.1H53.144v-3.9a4.93,4.93,0,0,0-.322-1.858,4.5,4.5,0,0,0-2.4-2.517l-8.78-2.89c-2.07,1.711-5.583,1.432-7.651-.01l-8.853,2.914a4.507,4.507,0,0,0-2.361,2.5,4.932,4.932,0,0,0-.323,1.86Z" transform="translate(2.004 -7.524)"/><path class="j" d="M16.532,42.1V43A.716.716,0,1,1,15.1,43V42.1a.716.716,0,1,1,1.432,0Z" transform="translate(1.368 -7.688)"/><path class="j" d="M16.532,28.866v11.5a.716.716,0,0,1-1.432,0v-11.5a.716.716,0,0,1,1.432,0Z" transform="translate(1.368 -9.035)"/></svg>