<svg xmlns="http://www.w3.org/2000/svg" width="41.408" height="49.59" viewBox="0 0 41.408 49.59"><defs><style>.a{fill:#e0e0de;}.b{fill:#e2dfe3;}.c{fill:#708bc6;}.d{fill:#0ab5b5;}.e{fill:#fff;}</style></defs><g transform="translate(-42.238)"><path class="a" d="M118.256,41.239H91.868a2.993,2.993,0,0,1-2.993-2.993V2.993A2.993,2.993,0,0,1,91.868,0h26.387a2.993,2.993,0,0,1,2.993,2.993V38.245A2.993,2.993,0,0,1,118.256,41.239Z" transform="translate(-42.12)"/><path class="b" d="M364.308,0h-2.993a2.993,2.993,0,0,1,2.993,2.993V38.245a2.993,2.993,0,0,1-2.993,2.993h2.993a2.993,2.993,0,0,0,2.993-2.993V2.993A2.993,2.993,0,0,0,364.308,0Z" transform="translate(-288.172)"/><path class="c" d="M80.653,231.019H45.231a2.993,2.993,0,0,1-2.993-2.993V203.879a2.993,2.993,0,0,1,2.993-2.993H56.85a2.993,2.993,0,0,1,2.491,1.333l1.216,1.824a2.993,2.993,0,0,0,2.491,1.333H80.653a2.993,2.993,0,0,1,2.993,2.993v19.657a2.993,2.993,0,0,1-2.993,2.993Z" transform="translate(0 -181.429)"/><g transform="translate(77.66 23.947)"><path class="d" d="M410.945,247.243h-2.993a2.993,2.993,0,0,1,2.993,2.993v19.657a2.993,2.993,0,0,1-2.993,2.993h2.993a2.993,2.993,0,0,0,2.993-2.993V250.236A2.993,2.993,0,0,0,410.945,247.243Z" transform="translate(-407.952 -247.243)"/></g><g transform="translate(54.112 27.938)"><circle class="d" cx="8.83" cy="8.83" r="8.83"/><path class="d" d="M242.044,288.451a8.856,8.856,0,0,0-1.5.127,8.831,8.831,0,0,1,0,17.406,8.831,8.831,0,1,0,1.5-17.534Z" transform="translate(-233.213 -288.451)"/><path class="e" d="M206.811,323.7h-3.442a.3.3,0,0,1-.3-.3v-3.442a.6.6,0,0,0-.6-.6h-1.8a.6.6,0,0,0-.6.6V323.4a.3.3,0,0,1-.3.3h-3.442a.6.6,0,0,0-.6.6v1.8a.6.6,0,0,0,.6.6h3.442a.3.3,0,0,1,.3.3v3.442a.6.6,0,0,0,.6.6h1.8a.6.6,0,0,0,.6-.6v-3.442a.3.3,0,0,1,.3-.3h3.442a.6.6,0,0,0,.6-.6v-1.8A.6.6,0,0,0,206.811,323.7Z" transform="translate(-192.742 -316.363)"/></g><path class="e" d="M169.033,50.15H150.374a1,1,0,0,1-1-1v-1.8a1,1,0,0,1,1-1h18.659a1,1,0,0,1,1,1v1.8A1,1,0,0,1,169.033,50.15Z" transform="translate(-96.761 -41.868)"/><g transform="translate(51.867 12.024)"><path class="e" d="M163.053,125.635H142.4a.748.748,0,0,1,0-1.5h20.654a.748.748,0,0,1,0,1.5Z" transform="translate(-141.65 -124.138)"/></g><g transform="translate(51.867 15.017)"><path class="e" d="M163.053,156.54H142.4a.748.748,0,0,1,0-1.5h20.654a.748.748,0,0,1,0,1.5Z" transform="translate(-141.65 -155.043)"/></g></g></svg>