<svg xmlns="http://www.w3.org/2000/svg" width="53.498" height="53.43" viewBox="0 0 53.498 53.43"><defs><style>.a{fill:#708bc6;}.b{fill:#f3f3f3;}.c{fill:#fff;}.d{fill:#2eaae6;}.e{fill:#e0e0de;}.f{fill:#0ab5b5;}</style></defs><path class="a" d="M97.591,27.01l2.641-1.068a4.969,4.969,0,0,0,2.774-6.39L96.824,3.48A4.975,4.975,0,0,0,90.392.631l-.108.043L59.393,13.479a4.975,4.975,0,0,0-2.75,6.335l1.244,3.316,2.088,5.721H91.3Z" transform="translate(-49.841 -0.296)"/><path class="b" d="M114.193,131.091l-1.953-4.883,7.812-3.906,1.953,4.883Z" transform="translate(-99.315 -108.252)"/><g transform="translate(7.423 10.284)"><path class="c" d="M329.475,127.372l8.788-3.908.749,1.684-8.788,3.908Z" transform="translate(-298.958 -119.564)"/><path class="b" d="M278.493,95.459,291.187,89.6l.772,1.672-12.694,5.859Z" transform="translate(-253.847 -89.6)"/><path class="d" d="M107.432,188.738c.082-.033.151-.084.23-.121a4.82,4.82,0,0,0-4.79-4.339H64.464l.619,1.652,2.091,5.718H98.5l6.295-1.842Z" transform="translate(-64.464 -173.375)"/></g><path class="e" d="M4.837,200.278H43.989a4.837,4.837,0,0,1,4.837,4.837v20.728a4.837,4.837,0,0,1-4.837,4.837H4.837A4.837,4.837,0,0,1,0,225.842V205.115A4.837,4.837,0,0,1,4.837,200.278Z" transform="translate(0 -177.249)"/><g transform="translate(0 28.556)"><path class="f" d="M261.527,355.333a5.527,5.527,0,1,1,5.527-5.527A5.527,5.527,0,0,1,261.527,355.333Zm0-9.212a3.685,3.685,0,1,0,3.685,3.685A3.685,3.685,0,0,0,261.527,346.12Z" transform="translate(-226.52 -333.223)"/><path class="f" d="M309.527,355.333a5.527,5.527,0,1,1,5.527-5.527A5.527,5.527,0,0,1,309.527,355.333Zm0-9.212a3.685,3.685,0,1,0,3.685,3.685A3.685,3.685,0,0,0,309.527,346.12Z" transform="translate(-268.993 -333.223)"/><path class="f" d="M0,248.278H48.826v7.37H0Z" transform="translate(0 -248.278)"/></g></svg>