<svg xmlns="http://www.w3.org/2000/svg" width="63.206" height="61.167" viewBox="0 0 63.206 61.167"><defs><style>.a{fill:#708bc6;}.b{fill:#0ab5b5;}</style></defs><g transform="translate(9.175 27.525)"><path class="a" d="M80,376h22.428v4.078H80Z" transform="translate(-80 -357.65)"/><path class="a" d="M114.35,250.35H96v-15.8A2.549,2.549,0,0,1,98.549,232H111.8a2.549,2.549,0,0,1,2.549,2.549Z" transform="translate(-93.961 -232)"/><path class="a" d="M256,376h22.428v4.078H256Z" transform="translate(-233.572 -357.65)"/><path class="a" d="M290.35,250.35H272v-15.8A2.549,2.549,0,0,1,274.549,232H287.8a2.549,2.549,0,0,1,2.549,2.549Z" transform="translate(-247.533 -232)"/></g><path class="b" d="M70.187,256.623H69.168V239.292a1.019,1.019,0,0,0-1.019-1.019H65.09a1.019,1.019,0,0,0-1.019,1.019v5.1H63.051V243.37a1.019,1.019,0,0,0-1.019-1.019H61.012V227.568A3.572,3.572,0,0,0,57.444,224H44.191a3.572,3.572,0,0,0-3.568,3.568V242.35H38.584V227.568A3.572,3.572,0,0,0,35.016,224H21.763a3.572,3.572,0,0,0-3.568,3.568V242.35H17.175a1.019,1.019,0,0,0-1.019,1.019v1.019H15.136v-5.1a1.019,1.019,0,0,0-1.019-1.019H11.058a1.019,1.019,0,0,0-1.019,1.019v17.331H9.019a1.019,1.019,0,1,0,0,2.039H70.187a1.019,1.019,0,1,0,0-2.039Zm-57.09,0H12.078V240.311H13.1Zm29.564-29.055a1.53,1.53,0,0,1,1.529-1.529H57.444a1.53,1.53,0,0,1,1.529,1.529V242.35H42.662Zm-2.039,16.821H61.012v2.039H40.623ZM20.234,227.568a1.53,1.53,0,0,1,1.529-1.529H35.016a1.53,1.53,0,0,1,1.529,1.529V242.35H20.234Zm-2.039,16.821H38.584v2.039H18.195ZM64.07,256.623H15.136V246.428h1.019v1.019a1.019,1.019,0,0,0,1.019,1.019H62.031a1.019,1.019,0,0,0,1.019-1.019v-1.019H64.07Zm3.058,0H66.109V240.311h1.019Z" transform="translate(-8 -197.494)"/><path class="b" d="M193.175,34.35A9.175,9.175,0,1,0,184,25.175,9.175,9.175,0,0,0,193.175,34.35Zm0-16.311a7.136,7.136,0,1,1-7.136,7.136A7.136,7.136,0,0,1,193.175,18.039Z" transform="translate(-161.572 -16)"/><path class="b" d="M249.828,55.347a1.019,1.019,0,0,0,1.442-1.442l-1.231-1.23V49.019a1.019,1.019,0,1,0-2.039,0V53.1a1.019,1.019,0,0,0,.3.721Z" transform="translate(-217.416 -43.922)"/></svg>