<svg id="Landing-Page" xmlns="http://www.w3.org/2000/svg" width="181.055" height="53.646" viewBox="0 0 181.055 53.646">
  <g id="Group-13">
    <g id="Group_3007" data-name="Group 3007" transform="translate(0 0)">
      <g id="Group-54-Copy">
        <g id="Group-53" transform="translate(0 0)">
          <g id="Group-12" transform="translate(0 0)">
            <g id="download-on-the-app-store-apple-copy" transform="translate(0)">
              <path id="Shape" d="M181.638,49.386a5.467,5.467,0,0,1-1.527,3.8,5.126,5.126,0,0,1-3.686,1.573H5.8A5.3,5.3,0,0,1,.583,49.386V6.5A5.309,5.309,0,0,1,5.8,1.118h170.62a5.132,5.132,0,0,1,3.687,1.577A5.473,5.473,0,0,1,181.637,6.5Z" transform="translate(-0.583 -1.118)" fill="#fff"/>
              <path id="Shape-2" data-name="Shape" d="M39.52,26.836a7.863,7.863,0,0,1,3.746-6.6,8.056,8.056,0,0,0-6.344-3.429c-2.669-.281-5.258,1.6-6.617,1.6-1.387,0-3.48-1.569-5.737-1.523a8.447,8.447,0,0,0-7.11,4.335c-3.075,5.321-.782,13.141,2.164,17.442,1.473,2.108,3.2,4.459,5.449,4.376,2.2-.09,3.028-1.4,5.689-1.4,2.636,0,3.41,1.4,5.708,1.351,2.366-.037,3.856-2.116,5.278-4.242a17.386,17.386,0,0,0,2.414-4.914A7.608,7.608,0,0,1,39.52,26.836ZM35.179,13.979A7.738,7.738,0,0,0,36.95,8.433a7.887,7.887,0,0,0-5.1,2.637,7.364,7.364,0,0,0-1.818,5.342A6.514,6.514,0,0,0,35.179,13.979Z" transform="translate(-0.583 -1.118)"/>
              <g id="Group" transform="translate(55.628 23.297)">
                <path id="Shape-3" data-name="Shape" d="M15.827,18.343H12.746l-1.688-5.3H5.191l-1.608,5.3h-3L6.4.291h3.59Zm-5.278-7.527L9.023,6.1q-.242-.722-.91-3.4H8.058Q7.789,3.853,7.2,6.1L5.7,10.816Zm20.2.859a7.37,7.37,0,0,1-1.8,5.248,5.292,5.292,0,0,1-4.013,1.715,4.018,4.018,0,0,1-3.718-1.846v6.83H18.321V9.6q0-2.086-.107-4.278h2.544l.161,2.063h.054a4.82,4.82,0,0,1,4.393-2.332,4.829,4.829,0,0,1,3.844,1.82A7.2,7.2,0,0,1,30.749,11.674ZM27.8,11.78a5.365,5.365,0,0,0-.857-3.135,2.964,2.964,0,0,0-2.518-1.285,3.009,3.009,0,0,0-1.942.709,3.29,3.29,0,0,0-1.138,1.862,3.775,3.775,0,0,0-.134.88v2.172a3.482,3.482,0,0,0,.871,2.4,2.892,2.892,0,0,0,2.263.978A2.965,2.965,0,0,0,26.89,15.1,5.539,5.539,0,0,0,27.8,11.78Zm17.922-.106a7.37,7.37,0,0,1-1.8,5.248A5.294,5.294,0,0,1,39.9,18.637a4.018,4.018,0,0,1-3.718-1.846v6.83H33.294V9.6q0-2.086-.107-4.278h2.544l.161,2.063h.054a5.148,5.148,0,0,1,8.238-.511A7.2,7.2,0,0,1,45.724,11.674Zm-2.948.106a5.365,5.365,0,0,0-.859-3.135A2.959,2.959,0,0,0,39.4,7.361a3.021,3.021,0,0,0-1.944.709A3.288,3.288,0,0,0,36.32,9.933a3.863,3.863,0,0,0-.136.88v2.172a3.494,3.494,0,0,0,.87,2.4,2.9,2.9,0,0,0,2.266.978A2.962,2.962,0,0,0,41.864,15.1,5.539,5.539,0,0,0,42.776,11.78Zm19.691,1.5a4.821,4.821,0,0,1-1.605,3.751,7.116,7.116,0,0,1-4.918,1.58,8.587,8.587,0,0,1-4.676-1.124l.669-2.41A8.049,8.049,0,0,0,56.116,16.2a3.944,3.944,0,0,0,2.544-.737,2.406,2.406,0,0,0,.913-1.967,2.52,2.52,0,0,0-.752-1.849,6.969,6.969,0,0,0-2.491-1.392q-4.742-1.768-4.743-5.171a4.565,4.565,0,0,1,1.674-3.642A6.622,6.622,0,0,1,57.7.024a8.764,8.764,0,0,1,4.1.857l-.726,2.357a7.168,7.168,0,0,0-3.469-.83,3.529,3.529,0,0,0-2.393.75,2.146,2.146,0,0,0-.726,1.636,2.21,2.21,0,0,0,.832,1.767,9.37,9.37,0,0,0,2.624,1.392,8.9,8.9,0,0,1,3.429,2.195A4.573,4.573,0,0,1,62.467,13.279ZM72.055,7.5H68.867v6.32q0,2.411,1.688,2.409a5.083,5.083,0,0,0,1.285-.134l.08,2.2a6.555,6.555,0,0,1-2.25.32,3.468,3.468,0,0,1-2.68-1.046,5.128,5.128,0,0,1-.965-3.509V7.491h-1.9V5.321h1.9V2.937l2.841-.857V5.321h3.188Zm14.358,4.231A7.139,7.139,0,0,1,84.7,16.655a6.114,6.114,0,0,1-4.768,1.982,5.828,5.828,0,0,1-4.568-1.9,6.922,6.922,0,0,1-1.7-4.794A7.081,7.081,0,0,1,75.415,6.99a6.082,6.082,0,0,1,4.73-1.929,5.95,5.95,0,0,1,4.606,1.9A6.832,6.832,0,0,1,86.413,11.727Zm-3,.066a5.827,5.827,0,0,0-.775-3.071,2.863,2.863,0,0,0-2.6-1.55,2.9,2.9,0,0,0-2.653,1.55,5.924,5.924,0,0,0-.776,3.125,5.81,5.81,0,0,0,.776,3.072,2.967,2.967,0,0,0,5.228-.026A5.85,5.85,0,0,0,83.414,11.794ZM95.82,7.869a5.035,5.035,0,0,0-.912-.08A2.73,2.73,0,0,0,92.55,8.942a4.342,4.342,0,0,0-.722,2.57v6.83H88.935V9.425q0-2.05-.084-4.1h2.52l.106,2.49h.08A4.465,4.465,0,0,1,93,5.755a3.5,3.5,0,0,1,2.091-.7,4.646,4.646,0,0,1,.723.053Zm12.937,3.349a6.78,6.78,0,0,1-.106,1.312H99.973a3.774,3.774,0,0,0,1.259,2.949,4.306,4.306,0,0,0,2.838.909,9.6,9.6,0,0,0,3.511-.614l.453,2.006a10.858,10.858,0,0,1-4.365.8,6.328,6.328,0,0,1-4.757-1.78,6.579,6.579,0,0,1-1.727-4.78,7.455,7.455,0,0,1,1.609-4.9,5.544,5.544,0,0,1,4.552-2.088,4.852,4.852,0,0,1,4.262,2.088A7.024,7.024,0,0,1,108.757,11.218ZM106,10.468a3.914,3.914,0,0,0-.562-2.223,2.526,2.526,0,0,0-2.3-1.207,2.743,2.743,0,0,0-2.3,1.179,4.319,4.319,0,0,0-.856,2.249Z" transform="translate(-0.583 -0.024)"/>
              </g>
              <g id="Group-2" data-name="Group" transform="translate(57.322 7.771)">
                <path id="Shape-4" data-name="Shape" d="M3,10.161a18.475,18.475,0,0,1-2.08-.106V1.328a15.751,15.751,0,0,1,2.449-.184c3.317,0,4.845,1.632,4.845,4.292C8.214,8.5,6.41,10.161,3,10.161Zm.486-7.9a5.8,5.8,0,0,0-1.145.092V8.989a7.509,7.509,0,0,0,.961.039c2.174,0,3.411-1.237,3.411-3.554A2.9,2.9,0,0,0,3.486,2.263Zm9.489,7.965A3.045,3.045,0,0,1,9.894,6.937a3.116,3.116,0,0,1,3.187-3.383,3.021,3.021,0,0,1,3.081,3.279A3.134,3.134,0,0,1,12.975,10.228Zm.054-5.635c-1.027,0-1.685.96-1.685,2.3,0,1.317.672,2.277,1.672,2.277s1.672-1.027,1.672-2.3C14.687,5.567,14.029,4.593,13.029,4.593Zm13.795-.907-2,6.4h-1.3L22.69,7.3a21.061,21.061,0,0,1-.514-2.066h-.027A13.845,13.845,0,0,1,21.635,7.3l-.882,2.778H19.436l-1.883-6.4h1.461l.725,3.041Q20,7.813,20.173,8.78H20.2c.1-.539.275-1.211.526-2.04l.909-3.053h1.159l.87,2.988c.21.724.381,1.435.514,2.107h.038a18.41,18.41,0,0,1,.434-2.107l.777-2.988Zm7.367,6.4H32.769V6.409c0-1.131-.434-1.7-1.29-1.7a1.477,1.477,0,0,0-1.422,1.567v3.8H28.635V5.514c0-.566-.014-1.172-.053-1.83h1.251l.066.987h.039a2.3,2.3,0,0,1,2.028-1.118c1.343,0,2.225,1.027,2.225,2.7Zm3.921,0H36.689V.75h1.423Zm5.184.145a3.046,3.046,0,0,1-3.081-3.291A3.116,3.116,0,0,1,43.4,3.554a3.02,3.02,0,0,1,3.081,3.279A3.133,3.133,0,0,1,43.3,10.228Zm.053-5.635c-1.027,0-1.685.96-1.685,2.3,0,1.317.673,2.277,1.67,2.277s1.672-1.027,1.672-2.3C45.008,5.567,44.351,4.593,43.35,4.593Zm8.739,5.49-.1-.737h-.038a2.185,2.185,0,0,1-1.871.882,1.86,1.86,0,0,1-1.961-1.883c0-1.579,1.369-2.4,3.739-2.4V5.831c0-.842-.446-1.264-1.328-1.264a3,3,0,0,0-1.672.475l-.289-.935a4.091,4.091,0,0,1,2.2-.553c1.672,0,2.515.882,2.515,2.646V8.556a9.66,9.66,0,0,0,.092,1.527Zm-.2-3.186c-1.579,0-2.372.383-2.372,1.29a.906.906,0,0,0,.976,1,1.362,1.362,0,0,0,1.4-1.3Zm8.29,3.186-.066-1.027h-.039a2.145,2.145,0,0,1-2.054,1.172c-1.543,0-2.685-1.356-2.685-3.265,0-2,1.184-3.41,2.8-3.41a1.923,1.923,0,0,1,1.8.869h.028V.75H61.4V8.358c0,.619.015,1.2.053,1.724Zm-.21-3.764a1.548,1.548,0,0,0-1.5-1.659c-1.054,0-1.7.935-1.7,2.25,0,1.29.669,2.173,1.67,2.173a1.6,1.6,0,0,0,1.526-1.7ZM70.42,10.228a3.045,3.045,0,0,1-3.08-3.291,3.116,3.116,0,0,1,3.186-3.383,3.02,3.02,0,0,1,3.081,3.279A3.133,3.133,0,0,1,70.42,10.228Zm.053-5.635c-1.026,0-1.684.96-1.684,2.3,0,1.317.672,2.277,1.67,2.277s1.672-1.027,1.672-2.3C72.134,5.567,71.476,4.593,70.473,4.593Zm10.781,5.49H79.831V6.409c0-1.131-.434-1.7-1.29-1.7A1.476,1.476,0,0,0,77.12,6.278v3.8H75.7V5.514c0-.566-.014-1.172-.053-1.83H76.9l.066.987H77a2.3,2.3,0,0,1,2.027-1.119c1.343,0,2.227,1.027,2.227,2.7Zm9.567-5.331H89.257V7.858c0,.791.274,1.186.828,1.186a2.8,2.8,0,0,0,.631-.066l.039,1.08a3.15,3.15,0,0,1-1.1.159c-1.121,0-1.791-.619-1.791-2.238V4.752h-.933V3.685h.933V2.513l1.4-.422V3.684h1.564Zm7.528,5.331H96.928V6.436c0-1.145-.433-1.724-1.29-1.724a1.394,1.394,0,0,0-1.423,1.514v3.856H92.794V.75h1.421V4.593h.028a2.157,2.157,0,0,1,1.924-1.04c1.354,0,2.182,1.053,2.182,2.725Zm7.712-2.857h-4.267a1.836,1.836,0,0,0,2.016,1.895,4.806,4.806,0,0,0,1.724-.3l.221.987a5.343,5.343,0,0,1-2.146.395,2.97,2.97,0,0,1-3.186-3.224c0-1.961,1.213-3.436,3.026-3.436,1.635,0,2.661,1.211,2.661,3.041A2.739,2.739,0,0,1,106.061,7.226Zm-1.3-1.013c0-.987-.5-1.685-1.407-1.685A1.686,1.686,0,0,0,101.8,6.212Z" transform="translate(-0.92 -0.75)"/>
              </g>
            </g>
          </g>
        </g>
      </g>
    </g>
  </g>
</svg>
