<svg xmlns="http://www.w3.org/2000/svg" width="80" height="80" viewBox="0 0 80 80">
  <g id="Group_127" data-name="Group 127" transform="translate(-749 -5983)">
    <circle id="Ellipse_35" data-name="Ellipse 35" cx="40" cy="40" r="40" transform="translate(749 5983)" fill="#f8f6f6"/>
    <g id="Group_120" data-name="Group 120" transform="translate(764.839 6006.521)">
      <path id="Path_239" data-name="Path 239" d="M39.615,5.012a9.6,9.6,0,0,0-1.184.074,8.335,8.335,0,0,0-7.9-6.1,7.839,7.839,0,0,0-2.657.462,10.622,10.622,0,0,0-12.054-6.23A11.09,11.09,0,0,0,7.394,4.151,11.453,11.453,0,0,0,7.716,6.84,9.388,9.388,0,0,0,.02,16.894a9.251,9.251,0,0,0,9.026,8.772H39.615A10.128,10.128,0,0,0,49.53,15.338,10.128,10.128,0,0,0,39.615,5.01Z" transform="translate(0.005 7.044)" fill="#00c5cd"/>
      <path id="Path_240" data-name="Path 240" d="M39.615,5.012a9.6,9.6,0,0,0-1.184.074,8.335,8.335,0,0,0-7.9-6.1,7.839,7.839,0,0,0-2.657.462,10.622,10.622,0,0,0-12.054-6.23A11.09,11.09,0,0,0,7.394,4.151,11.453,11.453,0,0,0,7.716,6.84,9.388,9.388,0,0,0,.02,16.894a9.251,9.251,0,0,0,9.026,8.772H39.615A10.128,10.128,0,0,0,49.53,15.338,10.128,10.128,0,0,0,39.615,5.01Zm0,18.935H9.047a7.579,7.579,0,0,1-7.54-7.624A7.6,7.6,0,0,1,8.826,8.467a.818.818,0,0,0,.658-.374.891.891,0,0,0,.1-.775A9.569,9.569,0,0,1,15.015-4.8,8.983,8.983,0,0,1,26.647.863a.845.845,0,0,0,.458.5.8.8,0,0,0,.661-.013,6.357,6.357,0,0,1,5.757.106,6.841,6.841,0,0,1,3.482,4.777.862.862,0,0,0,.352.547.8.8,0,0,0,.621.127,8.056,8.056,0,0,1,1.637-.171,8.44,8.44,0,0,1,8.262,8.607,8.44,8.44,0,0,1-8.262,8.607Zm0,0" transform="translate(0.005 7.044)" fill="#6155a3"/>
    </g>
  </g>
</svg>
