<svg id="Landing-Page" xmlns="http://www.w3.org/2000/svg" xmlns:xlink="http://www.w3.org/1999/xlink" width="181.055" height="53.646" viewBox="0 0 181.055 53.646">
  <defs>
    <linearGradient id="linear-gradient" x1="0.908" y1="0.048" x2="-0.383" y2="0.72" gradientUnits="objectBoundingBox">
      <stop offset="0" stop-color="#00a0ff"/>
      <stop offset="0.007" stop-color="#00a1ff"/>
      <stop offset="0.26" stop-color="#00beff"/>
      <stop offset="0.512" stop-color="#00d2ff"/>
      <stop offset="0.76" stop-color="#00dfff"/>
      <stop offset="1" stop-color="#00e3ff"/>
    </linearGradient>
    <linearGradient id="linear-gradient-2" x1="1.077" y1="0.494" x2="-1.307" y2="0.494" gradientUnits="objectBoundingBox">
      <stop offset="0" stop-color="#ffe000"/>
      <stop offset="0.409" stop-color="#ffbd00"/>
      <stop offset="0.775" stop-color="orange"/>
      <stop offset="1" stop-color="#ff9c00"/>
    </linearGradient>
    <linearGradient id="linear-gradient-3" x1="0.864" y1="0.178" x2="-0.499" y2="1.944" gradientUnits="objectBoundingBox">
      <stop offset="0" stop-color="#ff3a44"/>
      <stop offset="1" stop-color="#c31162"/>
    </linearGradient>
    <linearGradient id="linear-gradient-4" x1="-0.186" y1="-0.545" x2="0.423" y2="0.247" gradientUnits="objectBoundingBox">
      <stop offset="0" stop-color="#32a071"/>
      <stop offset="0.069" stop-color="#2da771"/>
      <stop offset="0.476" stop-color="#15cf74"/>
      <stop offset="0.801" stop-color="#06e775"/>
      <stop offset="1" stop-color="#00f076"/>
    </linearGradient>
  </defs>
  <g id="Group-13">
    <g id="Group_3006" data-name="Group 3006" transform="translate(0 0)">
      <g id="Group-54-Copy" transform="translate(0 0)">
        <g id="Group-53" transform="translate(0 0)">
          <g id="Group-12" transform="translate(0 0)">
            <g id="google-play-badge-copy" transform="translate(0 0)">
              <path id="Shape" d="M174.35,54.764H6.706A6.641,6.641,0,0,1,0,48.058V7.823A6.641,6.641,0,0,1,6.706,1.118H174.35a6.641,6.641,0,0,1,6.706,6.706V48.058A6.641,6.641,0,0,1,174.35,54.764Z" transform="translate(0 -1.118)" fill="#fff"/>
              <path id="Shape-2" data-name="Shape" d="M63.571,15.021a3.653,3.653,0,0,1-.939,2.682,4.158,4.158,0,0,1-7.108-2.951A4.122,4.122,0,0,1,59.681,10.6a3.571,3.571,0,0,1,1.609.4,2.921,2.921,0,0,1,1.207.939l-.671.671a2.5,2.5,0,0,0-2.146-.939,2.668,2.668,0,0,0-2.146.939,2.763,2.763,0,0,0-.939,2.28,2.763,2.763,0,0,0,.939,2.28,3.453,3.453,0,0,0,2.146.939,2.941,2.941,0,0,0,2.28-.939,2.221,2.221,0,0,0,.671-1.609H59.681V14.484h3.889Zm6.169-3.353H66.119v2.548h3.353v.939H66.119V17.7H69.74v1.073H65.046V10.729H69.74Zm4.426,7.108H73.093V11.668h-2.28v-.939h5.633v.939h-2.28Zm6.169,0V10.729h1.073v8.047Zm5.633,0H84.895V11.668h-2.28v-.939h5.5v.939h-2.28v7.108ZM98.709,17.7A4.158,4.158,0,0,1,91.6,14.753a4.158,4.158,0,1,1,8.315,0A3.943,3.943,0,0,1,98.709,17.7Zm-5.1-.671a3.165,3.165,0,0,0,2.146.939,2.668,2.668,0,0,0,2.146-.939,3.236,3.236,0,0,0,.939-2.28,2.763,2.763,0,0,0-.939-2.28,3.165,3.165,0,0,0-2.146-.939,2.668,2.668,0,0,0-2.146.939,3.236,3.236,0,0,0-.939,2.28A2.763,2.763,0,0,0,93.612,17.033Zm7.779,1.743V10.729H102.6l3.889,6.3v-6.3h1.073v8.047h-1.073L102.33,12.2v6.572Z" transform="translate(0 -1.118)" stroke="#000" stroke-width="0.5"/>
              <path id="Shape-3" data-name="Shape" d="M91.332,30.578a5.642,5.642,0,0,0-5.767,5.767,5.724,5.724,0,0,0,5.767,5.767A5.642,5.642,0,0,0,97.1,36.345,5.564,5.564,0,0,0,91.332,30.578Zm0,9.12a3.5,3.5,0,0,1,0-6.974,3.249,3.249,0,0,1,3.219,3.487A3.329,3.329,0,0,1,91.332,39.7ZM78.86,30.578a5.642,5.642,0,0,0-5.767,5.767,5.724,5.724,0,0,0,5.767,5.767,5.642,5.642,0,0,0,5.767-5.767A5.564,5.564,0,0,0,78.86,30.578Zm0,9.12a3.5,3.5,0,0,1,0-6.974,3.249,3.249,0,0,1,3.219,3.487A3.329,3.329,0,0,1,78.86,39.7ZM63.973,32.322v2.414H69.74A5.071,5.071,0,0,1,68.4,37.82a5.936,5.936,0,0,1-4.426,1.743,6.244,6.244,0,0,1-6.3-6.438,6.326,6.326,0,0,1,6.3-6.438A6.65,6.65,0,0,1,68.4,28.432l1.743-1.743a8.594,8.594,0,0,0-6.035-2.414,9.047,9.047,0,0,0-8.986,8.852,9.047,9.047,0,0,0,8.986,8.852,7.718,7.718,0,0,0,6.169-2.548A8.074,8.074,0,0,0,72.422,33.8a5.029,5.029,0,0,0-.134-1.475ZM124.861,34.2a5.211,5.211,0,0,0-4.828-3.621c-2.951,0-5.365,2.28-5.365,5.767a5.612,5.612,0,0,0,5.633,5.767A5.5,5.5,0,0,0,125,39.564l-1.878-1.341a3.269,3.269,0,0,1-2.816,1.609,2.91,2.91,0,0,1-2.816-1.743l7.645-3.219Zm-7.779,1.878a3.258,3.258,0,0,1,2.951-3.353,2.372,2.372,0,0,1,2.146,1.207Zm-6.3,5.5h2.548V24.811h-2.548Zm-4.023-9.79a4.416,4.416,0,0,0-3.085-1.341,5.763,5.763,0,0,0-5.5,5.767,5.553,5.553,0,0,0,5.5,5.633,3.851,3.851,0,0,0,2.951-1.341h.134v.8c0,2.146-1.207,3.353-3.085,3.353a2.98,2.98,0,0,1-2.816-2.012l-2.146.939a5.533,5.533,0,0,0,5.1,3.353c2.951,0,5.365-1.743,5.365-5.9V30.846h-2.414ZM103.805,39.7a3.5,3.5,0,0,1,0-6.974,3.227,3.227,0,0,1,3.085,3.487A3.227,3.227,0,0,1,103.805,39.7Zm32.724-14.887h-6.035V41.576h2.548v-6.3h3.487a5.237,5.237,0,1,0,0-10.461Zm.134,8.047h-3.621V27.091h3.621a2.946,2.946,0,0,1,2.951,2.816A3.069,3.069,0,0,1,136.663,32.858Zm15.423-2.414a4.508,4.508,0,0,0-4.426,2.548l2.28.939a2.369,2.369,0,0,1,2.28-1.207A2.52,2.52,0,0,1,154.9,34.87V35a5.32,5.32,0,0,0-2.548-.671c-2.414,0-4.828,1.341-4.828,3.755a3.929,3.929,0,0,0,4.158,3.755,3.774,3.774,0,0,0,3.219-1.609h.134v1.341h2.414V35.138A5.076,5.076,0,0,0,152.086,30.444Zm-.268,9.254c-.8,0-2.012-.4-2.012-1.475,0-1.341,1.475-1.743,2.682-1.743a5.187,5.187,0,0,1,2.28.536A3.124,3.124,0,0,1,151.818,39.7ZM165.9,30.846l-2.816,7.242h-.134L160,30.846h-2.682l4.426,10.193-2.548,5.633h2.548l6.84-15.826ZM143.369,41.576h2.548V24.811h-2.548Z" transform="translate(0 -1.118)"/>
              <g id="Group" transform="translate(13.411 9.809)">
                <path id="Shape-4" data-name="Shape" d="M.536.671A2.622,2.622,0,0,0,0,2.548V32.188a2.653,2.653,0,0,0,.671,1.878L.8,34.2l16.63-16.63V17.3Z" transform="translate(0 -0.197)" fill="url(#linear-gradient)"/>
                <path id="Shape-5" data-name="Shape" d="M22.8,23.2l-5.5-5.5v-.4l5.5-5.5.134.134,6.572,3.755c1.878,1.073,1.878,2.816,0,3.889Z" transform="translate(0 -0.197)" fill="url(#linear-gradient-2)"/>
                <path id="Shape-6" data-name="Shape" d="M22.934,23.068,17.3,17.435.536,34.2c.671.671,1.609.671,2.816.134L22.934,23.068" transform="translate(0 -0.197)" fill="url(#linear-gradient-3)"/>
                <path id="Shape-7" data-name="Shape" d="M22.934,11.8,3.353.671A2.174,2.174,0,0,0,.536.8L17.3,17.435Z" transform="translate(0 -0.197)" fill="url(#linear-gradient-4)"/>
                <path id="Shape-8" data-name="Shape" d="M22.8,22.934l-19.447,11a2.193,2.193,0,0,1-2.682,0l-.134.134.134.134a2.193,2.193,0,0,0,2.682,0Z" transform="translate(0 -0.197)" opacity="0.2"/>
                <path id="Shape-9" data-name="Shape" d="M.536,33.931A2.622,2.622,0,0,1,0,32.053v.134a2.653,2.653,0,0,0,.671,1.878v-.134ZM29.505,19.178,22.8,22.934l.134.134,6.572-3.755a2.229,2.229,0,0,0,1.341-1.878C30.846,18.106,30.31,18.642,29.505,19.178Z" transform="translate(0 -0.197)" opacity="0.12"/>
                <path id="Shape-10" data-name="Shape" d="M3.353.8,29.505,15.691c.8.536,1.341,1.073,1.341,1.743a2.229,2.229,0,0,0-1.341-1.878L3.353.671C1.475-.4,0,.4,0,2.548v.134C0,.671,1.475-.268,3.353.8Z" transform="translate(0 -0.197)" fill="#fff" opacity="0.25"/>
              </g>
            </g>
          </g>
        </g>
      </g>
    </g>
  </g>
</svg>
