<svg xmlns="http://www.w3.org/2000/svg" width="80" height="80" viewBox="0 0 80 80">
  <g id="Group_124" data-name="Group 124" transform="translate(-206 -6292)">
    <circle id="Ellipse_34" data-name="Ellipse 34" cx="40" cy="40" r="40" transform="translate(206 6292)" fill="#f8f6f6"/>
    <g id="Group_119" data-name="Group 119" transform="translate(231.821 6315.17)">
      <g id="Group_100" data-name="Group 100">
        <path id="Path_256" data-name="Path 256" d="M27.893,7.591,14.284.082a.656.656,0,0,0-.644,0L.406,7.595a.706.706,0,0,0-.352.615v9.808a20.347,20.347,0,0,0,11.76,18.587l1.84.828a.656.656,0,0,0,.539,0l2.07-.925A20.294,20.294,0,0,0,28.251,17.824V8.21a.706.706,0,0,0-.358-.619Z" transform="translate(-0.054 0.002)" fill="#00c5cd"/>
        <path id="Path_257" data-name="Path 257" d="M81.035,148.967a.662.662,0,0,0-.955-.078.719.719,0,0,0-.075.989l3.579,4.34a.662.662,0,0,0,.942.089l8.335-7.022a.719.719,0,0,0,.1-.987.662.662,0,0,0-.953-.1l-7.822,6.589Zm0,0" transform="translate(-72.118 -131.401)" fill="#6155a3"/>
      </g>
      <g id="Group_101" data-name="Group 101">
        <path id="Path_258" data-name="Path 258" d="M27.893,7.591,14.284.082a.656.656,0,0,0-.644,0L.406,7.595a.706.706,0,0,0-.352.615v9.808a20.347,20.347,0,0,0,11.76,18.587l1.84.828a.656.656,0,0,0,.539,0l2.07-.925A20.294,20.294,0,0,0,28.251,17.824V8.21a.706.706,0,0,0-.358-.619Zm-1,10.233A18.891,18.891,0,0,1,15.73,35.218l-.008,0-1.8.806-1.566-.707a18.939,18.939,0,0,1-10.943-17.3V8.626L13.969,1.5,26.9,8.635Zm0,0" transform="translate(-0.054 0.002)" fill="#6155a3"/>
        <path id="Path_259" data-name="Path 259" d="M81.035,148.967a.662.662,0,0,0-.955-.078.719.719,0,0,0-.075.989l3.579,4.34a.662.662,0,0,0,.942.089l8.335-7.022a.719.719,0,0,0,.1-.987.662.662,0,0,0-.953-.1l-7.822,6.589Zm0,0" transform="translate(-72.118 -131.401)" fill="#6155a3"/>
      </g>
    </g>
  </g>
</svg>
