<svg xmlns="http://www.w3.org/2000/svg" width="80" height="80" viewBox="0 0 80 80">
  <g id="Group_125" data-name="Group 125" transform="translate(-759 -6290)">
    <circle id="Ellipse_37" data-name="Ellipse 37" cx="40" cy="40" r="40" transform="translate(759 6290)" fill="#f8f6f6"/>
    <g id="Group_119" data-name="Group 119" transform="translate(780.625 6307.091)">
      <path id="Path_251" data-name="Path 251" d="M6541.841,4558.1l-6.414,3.618-2.169,2.256-1.065,2.16-.5,2.4v1.158h33.135v-1.85l-1.321-3.019-3.953-4.029-4.663-1.8h-1.025l-1.013-2.966-2.222.36-1.544.523-3.347-.523-2.224-.817Z" transform="translate(-6530.479 -4531.631)" fill="#00c5cd"/>
      <g id="Group_98" data-name="Group 98" transform="translate(0 0)">
        <g id="Group_95" data-name="Group 95" transform="translate(25.102 30.123)">
          <path id="Path_252" data-name="Path 252" d="M356.761,396a.761.761,0,1,0,.761.761A.761.761,0,0,0,356.761,396Z" transform="translate(-356 -396)" fill="#6155a3"/>
        </g>
        <g id="Group_96" data-name="Group 96">
          <path id="Path_253" data-name="Path 253" d="M53.735,27.66l-3.616-1.2-1.3-2.6a8.331,8.331,0,0,0,2.254-4.41l.16-.97h1.385A2.284,2.284,0,0,0,54.9,16.2v-4.79a11.41,11.41,0,1,0-22.82,0V16.2a2.286,2.286,0,0,0,1.523,2.151v.889a2.284,2.284,0,0,0,2.282,2.282h.668A8.252,8.252,0,0,0,37.831,23.5c.107.123.22.241.335.361l-1.3,2.6-3.616,1.2A11.218,11.218,0,0,0,26,38.184a.761.761,0,0,0,.761.761H60.23a.761.761,0,0,0,.761-.761A11.217,11.217,0,0,0,53.735,27.66ZM53.383,16.2a.762.762,0,0,1-.761.761H51.462c.193-1.5.321-3.092.374-4.661,0-.044,0-.087,0-.131h1.543Zm-19.016.761a.762.762,0,0,1-.761-.761V12.17H35.15q0,.119.008.241v.008h0c.053,1.523.18,3.079.37,4.544H34.367Zm1.523,3.047a.762.762,0,0,1-.762-.766v-.761h.624l.16.971q.047.277.113.551Zm-.759-9.356h-1.5a9.889,9.889,0,0,1,19.723,0h-1.5a7.7,7.7,0,0,0-7.685-7.6H42.813a7.7,7.7,0,0,0-7.684,7.6Zm7.685-6.085h1.363a6.185,6.185,0,0,1,6.165,6.193c0,.241,0,.448-.006.641v.007l-.952-.136a12.223,12.223,0,0,1-6.872-3.436.761.761,0,0,0-.538-.223,6.881,6.881,0,0,0-5.291,2.5,6.183,6.183,0,0,1,6.128-5.55ZM37.605,20.007a43.478,43.478,0,0,1-.913-7.382l1.024-1.363A5.354,5.354,0,0,1,41.673,9.14a13.759,13.759,0,0,0,7.5,3.631l1.122.16c-.075,1.588-.228,3.183-.447,4.65h0c-.07.471-.124.774-.265,1.622A6.461,6.461,0,0,1,45,24.4a5.985,5.985,0,0,1-6.719-2.873h1.551a2.286,2.286,0,0,0,2.151,1.523H43.5a2.282,2.282,0,1,0,0-4.564H41.979a2.283,2.283,0,0,0-2.153,1.523Zm4.307,5.933A7.629,7.629,0,0,0,44.742,26L43.4,27.424Zm.439,2.591-2.412,2.551a28.98,28.98,0,0,1-1.7-3.949l.906-1.812Zm5.372-3.468,1.035,2.069a28.974,28.974,0,0,1-1.7,3.95L44.473,28.5Zm-6.51-4.3A.761.761,0,0,1,41.974,20H43.5a.762.762,0,1,1,0,1.523H41.974a.762.762,0,0,1-.761-.762ZM27.551,37.424A9.613,9.613,0,0,1,33.736,29.1l3.2-1.067a30.493,30.493,0,0,0,2.165,4.7l0,.008h0a30.5,30.5,0,0,0,2.085,3.18l.936,1.5Zm15.943-.678L42.463,35.09q-.018-.028-.037-.054a29,29,0,0,1-1.714-2.561l2.713-2.869,2.859,2.858a28.972,28.972,0,0,1-1.721,2.571C44.527,35.086,44.58,35.007,43.495,36.746Zm1.37.678.938-1.5a30.491,30.491,0,0,0,2.1-3.207l.011-.02h0a30.466,30.466,0,0,0,2.141-4.657l3.2,1.065a9.613,9.613,0,0,1,6.185,8.319H44.865Z" transform="translate(-26 0)" fill="#6155a3"/>
        </g>
        <g id="Group_97" data-name="Group 97" transform="translate(27.811 31.602)">
          <path id="Path_254" data-name="Path 254" d="M394.526,417.867a7.6,7.6,0,0,0-2.154-2.614.761.761,0,0,0-.928,1.2,6.074,6.074,0,0,1,1.72,2.085.762.762,0,0,0,1.363-.68Z" transform="translate(-391.185 -415.122)" fill="#6155a3"/>
        </g>
      </g>
    </g>
  </g>
</svg>
