<svg xmlns="http://www.w3.org/2000/svg" width="80" height="80" viewBox="0 0 80 80">
  <g id="Group_126" data-name="Group 126" transform="translate(-755 -6134)">
    <circle id="Ellipse_36" data-name="Ellipse 36" cx="40" cy="40" r="40" transform="translate(755 6134)" fill="#f8f6f6"/>
    <g id="Group_118" data-name="Group 118" transform="translate(776.102 6155.648)">
      <g id="Group_93" data-name="Group 93" transform="translate(0)">
        <g id="Group_86" data-name="Group 86" transform="translate(0 5.836)">
          <path id="Path_242" data-name="Path 242" d="M32.83,27.344H2.189A2.191,2.191,0,0,1,0,25.152V6.189A2.191,2.191,0,0,1,2.189,4H13.86a.73.73,0,0,1,0,1.459H2.189a.735.735,0,0,0-.729.729V25.152a.735.735,0,0,0,.729.729H32.83a.735.735,0,0,0,.729-.729V14.345a.73.73,0,1,1,1.459,0V25.152a2.191,2.191,0,0,1-2.189,2.193Z" transform="translate(0 -4)" fill="#6155a3"/>
        </g>
        <g id="Group_87" data-name="Group 87" transform="translate(10.213 33.557)">
          <path id="Path_243" data-name="Path 243" d="M20.86,24.459H7.729a.73.73,0,0,1,0-1.459H20.86a.73.73,0,1,1,0,1.459Z" transform="translate(-6.999 -23)" fill="#6155a3"/>
        </g>
        <g id="Group_88" data-name="Group 88" transform="translate(14.59 27.721)">
          <path id="Path_244" data-name="Path 244" d="M10.729,26.3a.73.73,0,0,1-.729-.73V19.729a.73.73,0,0,1,1.459,0v5.836a.73.73,0,0,1-.73.73Z" transform="translate(-10 -19)" fill="#6155a3"/>
        </g>
        <g id="Group_89" data-name="Group 89" transform="translate(18.967 27.721)">
          <path id="Path_245" data-name="Path 245" d="M13.729,26.3a.73.73,0,0,1-.729-.73V19.729a.73.73,0,0,1,1.459,0v5.836a.73.73,0,0,1-.73.73Z" transform="translate(-13 -19)" fill="#6155a3"/>
        </g>
        <g id="Group_90" data-name="Group 90" transform="translate(13.131 16.049)">
          <path id="Path_246" data-name="Path 246" d="M11.918,16.836a2.918,2.918,0,1,1,2.918-2.918,2.918,2.918,0,0,1-2.918,2.918Zm0-4.377a1.459,1.459,0,1,0,1.459,1.459,1.459,1.459,0,0,0-1.459-1.459Z" transform="translate(-9 -11)" fill="#6155a3"/>
        </g>
        <g id="Group_91" data-name="Group 91" transform="translate(10.213 23.344)">
          <path id="Path_247" data-name="Path 247" d="M17.943,21.836a.73.73,0,0,1-.729-.729V19.647a2.191,2.191,0,0,0-2.189-2.189H10.648a2.191,2.191,0,0,0-2.189,2.189v1.459a.73.73,0,0,1-1.459,0V19.647A3.651,3.651,0,0,1,10.647,16h4.377a3.651,3.651,0,0,1,3.647,3.647v1.459A.73.73,0,0,1,17.943,21.836Z" transform="translate(-7 -16)" fill="#6155a3"/>
        </g>
        <g id="Group_92" data-name="Group 92" transform="translate(17.508)">
          <path id="Path_248" data-name="Path 248" d="M28.778,11.672a.721.721,0,0,1-.467-.169L25.13,8.852v.632a2.191,2.191,0,0,1-2.189,2.189H14.189A2.191,2.191,0,0,1,12,9.484v-7.3A2.191,2.191,0,0,1,14.189,0h8.755a2.191,2.191,0,0,1,2.189,2.189v.632l3.18-2.65a.735.735,0,0,1,.776-.1.727.727,0,0,1,.421.66V10.943a.73.73,0,0,1-.421.661A.74.74,0,0,1,28.778,11.672ZM14.189,1.459a.735.735,0,0,0-.729.729v7.3a.735.735,0,0,0,.729.729h8.755a.735.735,0,0,0,.729-.729V7.3a.729.729,0,0,1,1.2-.56L28.05,9.386v-7.1L24.868,4.936a.729.729,0,0,1-1.2-.559V2.189a.735.735,0,0,0-.729-.729Z" transform="translate(-12)" fill="#6155a3"/>
        </g>
      </g>
      <path id="Path_249" data-name="Path 249" d="M6170.65,4535.6h10.681l.533,3.235,4.272-3.235v9.163l-4.272-2.878-.533,3.47H6170.65Z" transform="translate(-6151.795 -4534.752)" fill="#00c5cd"/>
    </g>
  </g>
</svg>
