<svg xmlns="http://www.w3.org/2000/svg" width="80" height="80" viewBox="0 0 80 80">
  <g id="Group_123" data-name="Group 123" transform="translate(-204.688 -6135.019)">
    <g id="Group_122" data-name="Group 122" transform="translate(204.688 6135.019)">
      <g id="Group_121" data-name="Group 121" transform="translate(0 0)">
        <g id="Group_102" data-name="Group 102">
          <ellipse id="Ellipse_25" data-name="Ellipse 25" cx="40" cy="40" rx="40" ry="40" fill="#f8f6f6"/>
        </g>
        <path id="Path_261" data-name="Path 261" d="M5981.338,4559.984l-12.691,11.948-3.565-3.408,12.348-12.23-13.707-13.979,6.962-6.833,13.947,13.65,10.81-10.557,5.247-1.948-2.177,5.69-10.755,10.163,14.274,14.087-7.491,6.8Z" transform="translate(-5940.033 -4514.28)" fill="#00c5cd"/>
        <path id="Path_262" data-name="Path 262" d="M33.92,28.115h0l-1.729-1.861h0l-6.51-7.006L36.1,8.038a.356.356,0,0,0,.02-.033.673.673,0,0,0,.081-.129.46.46,0,0,0,.031-.053.034.034,0,0,1,.006-.023.087.087,0,0,0,.011-.021L37.962,2.2a.607.607,0,0,0,.009-.073.647.647,0,0,0,.012-.136.693.693,0,0,0-.015-.133.605.605,0,0,0-.009-.073c0-.015-.016-.026-.021-.041a.655.655,0,0,0-.062-.116.574.574,0,0,0-.07-.1.579.579,0,0,0-.089-.073.615.615,0,0,0-.11-.067.389.389,0,0,0-.039-.024.478.478,0,0,0-.068-.009.521.521,0,0,0-.125-.017.577.577,0,0,0-.122.015.516.516,0,0,0-.07.009L32,3.211s-.009.006-.013.008a.6.6,0,0,0-.28.21L21.348,14.582,11.38,3.853h0L7.981.193a.582.582,0,0,0-.867,0L.179,7.653a.7.7,0,0,0,0,.933L13.546,22.981l-5.2,5.6h0L6.609,30.449h0L1.586,35.855h0a1.394,1.394,0,0,0,0,1.863l2.6,2.8a1.166,1.166,0,0,0,1.734,0l11.96-12.875L31.248,42.034a.581.581,0,0,0,.866,0l6.94-7.465a.7.7,0,0,0,0-.933ZM12.242,31.85l-2.6-2.8L21.781,15.984h0L31.566,5.452V7.57a.637.637,0,0,0,.613.659h2.005ZM34.621,3.669l1.2,1.291-.6,1.951h-2.43V4.32Zm1.631-.111L35.924,3.2l.487-.175ZM1.479,8.125,7.548,1.593l.8.859-.433.467a.7.7,0,0,0,0,.933.583.583,0,0,0,.867,0l.433-.467.867.933-1.3,1.4a.7.7,0,0,0,0,.933.583.583,0,0,0,.867,0l1.3-1.4.868.934-.434.467a.7.7,0,0,0,0,.933.583.583,0,0,0,.867,0l.434-.467.867.933-1.3,1.4a.7.7,0,0,0,0,.933.583.583,0,0,0,.867,0l1.3-1.4.867.933-.433.467a.7.7,0,0,0,0,.933.583.583,0,0,0,.867,0l.433-.467.867.933-1.3,1.4a.7.7,0,0,0,0,.933.583.583,0,0,0,.867,0l1.3-1.4.867.933-.433.467a.7.7,0,0,0,0,.933.583.583,0,0,0,.867,0l.434-.465.867.933-6.068,6.531ZM5.053,39.588l-2.6-2.8h0L5.3,33.72l2.6,2.8Zm3.72-4-2.6-2.8.868-.934a.582.582,0,0,0,.851-.016.7.7,0,0,0,.015-.916l.869-.934,2.6,2.8-.868.934a.583.583,0,0,0-.867,0,.7.7,0,0,0,0,.933ZM31.68,40.636,18.747,26.713l6.068-6.533.868.934-.434.467a.7.7,0,0,0,0,.933.583.583,0,0,0,.867,0l.434-.467.867.933-1.3,1.4a.7.7,0,0,0,0,.933.583.583,0,0,0,.867,0l1.3-1.4.867.933-.433.467a.7.7,0,0,0,0,.933.583.583,0,0,0,.867,0l.433-.467.867.933-1.3,1.4a.7.7,0,0,0,0,.933.583.583,0,0,0,.867,0l1.3-1.4.867.933-.433.468a.7.7,0,0,0,.014.919.583.583,0,0,0,.854.014l.433-.467.866.932-1.3,1.4a.7.7,0,0,0,0,.933.583.583,0,0,0,.867,0l1.3-1.4.868.934-.434.467a.7.7,0,0,0,0,.933.583.583,0,0,0,.867,0l.434-.467.8.859Z" transform="translate(22.994 19.079)" fill="#6155a3"/>
      </g>
    </g>
  </g>
</svg>
