<svg xmlns="http://www.w3.org/2000/svg" xmlns:xlink="http://www.w3.org/1999/xlink" width="51" height="51" viewBox="0 0 51 51"><defs><style>.a{clip-path:url(#a);}.b{fill:none;stroke-width:3px;}.b,.c{stroke:#708bc6;}.c{fill:#708bc6;stroke-width:0.5px;}</style><clipPath id="a"><rect width="51" height="51" transform="translate(-0.385 -0.314)"/></clipPath></defs><g class="a" transform="translate(0.385 0.314)"><path class="b" d="M36.21,9.522,18.534.1a.878.878,0,0,0-.837,0L.512,9.527a.88.88,0,0,0-.457.772V22.6A25.474,25.474,0,0,0,15.323,45.916l2.385,1.041a.879.879,0,0,0,.7,0L21.1,45.8A25.424,25.424,0,0,0,36.676,22.358V10.3A.88.88,0,0,0,36.21,9.522Z" transform="translate(7.164 1.763)"/><path class="c" d="M329.425,220.756v-1.015a3.323,3.323,0,0,0-6.643,0v1.031a1.856,1.856,0,0,0-1.582,1.835v5.975a1.856,1.856,0,0,0,1.856,1.856h6.221a1.856,1.856,0,0,0,1.856-1.856v-5.975A1.856,1.856,0,0,0,329.425,220.756Zm-2.419,6.333h-1.624l.254-1.175a.984.984,0,1,1,1.074,0c.111.44.3,1.175.3,1.175Zm1.719-6.342H323.5v-1.006a2.608,2.608,0,0,1,5.212,0Z" transform="translate(-301.088 -198.291)"/></g></svg>