<svg xmlns="http://www.w3.org/2000/svg" xmlns:xlink="http://www.w3.org/1999/xlink" width="150" height="143.75" viewBox="0 0 150 143.75"><defs><clipPath id="b"><rect width="150" height="143.75"/></clipPath></defs><g id="a" clip-path="url(#b)"><g transform="translate(-63.972 -252.917)"><g transform="translate(66.972 356.207)"><path d="M-403.453,527.946c-4.98,0-10.1,3.991-10.1,10.976,0,6.386,4.5,10.9,10.1,10.9a8.119,8.119,0,0,0,6.681-3.1v1.352a1.426,1.426,0,0,0,1.352,1.352h3.341v-21h-4.693v2.664a8.131,8.131,0,0,0-6.681-3.142Zm.836,4.294c4.1,0,6.25,3.606,6.25,6.681a6.477,6.477,0,0,1-6.242,6.679,6.348,6.348,0,0,1-6.171-6.724C-408.78,535.06-406.122,532.24-402.617,532.24Z" transform="translate(413.554 -517.687)"/><path d="M-363.528,549.416a1.313,1.313,0,0,1-1.352-1.352V528.418h4.693v2.6a7.32,7.32,0,0,1,6.329-3.082,7.842,7.842,0,0,1,7.987,8.04v13.442h-3.261a1.437,1.437,0,0,1-1.432-1.432V537.008c0-2.153-1.319-4.769-4.371-4.769-3.293,0-5.253,3.112-5.253,6.041v11.135Z" transform="translate(391.525 -517.682)"/><path d="M-313.515,519.661c-4.98,0-10.1,3.991-10.1,10.976,0,6.386,4.5,10.9,10.1,10.9a8.119,8.119,0,0,0,6.681-3.1v1.352a1.426,1.426,0,0,0,1.352,1.352h3.341v-31.5h-4.693V522.8A8.131,8.131,0,0,0-313.515,519.661Zm.836,4.294c4.1,0,6.25,3.606,6.25,6.681a6.477,6.477,0,0,1-6.242,6.679,6.348,6.348,0,0,1-6.171-6.724C-318.842,526.775-316.184,523.954-312.679,523.954Z" transform="translate(372.849 -509.402)"/><path d="M-273.59,549.618a1.313,1.313,0,0,1-1.352-1.352V528.621h4.693v3.5a5.783,5.783,0,0,1,5.647-3.738,9.8,9.8,0,0,1,1.67.159v4.852a6.754,6.754,0,0,0-2.227-.4c-3.293,0-5.09,3.112-5.09,6.041v10.582Z" transform="translate(350.82 -517.885)"/><path d="M-202.1,549.816a1.313,1.313,0,0,1-1.352-1.352V528.818h4.693v21Z" transform="translate(318.466 -518.082)"/><path d="M-178.1,519.661c-4.98,0-10.1,3.991-10.1,10.976,0,6.386,4.5,10.9,10.1,10.9a8.119,8.119,0,0,0,6.681-3.1v1.352a1.426,1.426,0,0,0,1.352,1.352h3.341v-31.5h-4.693V522.8A8.131,8.131,0,0,0-178.1,519.661Zm.836,4.294c4.1,0,6.25,3.606,6.25,6.681a6.477,6.477,0,0,1-6.242,6.679,6.348,6.348,0,0,1-6.171-6.724C-183.427,526.775-180.769,523.954-177.264,523.954Z" transform="translate(311.561 -509.402)"/><circle cx="3.104" cy="3.104" r="3.104" transform="translate(114.215)"/><path d="M-239.445,527.934a10.808,10.808,0,0,0-10.946,10.946,10.686,10.686,0,0,0,10.934,10.935,10.83,10.83,0,0,0,11.1-10.894A10.9,10.9,0,0,0-239.445,527.934Zm.017,4.382a6.337,6.337,0,0,1,6.3,6.577,6.432,6.432,0,0,1-6.286,6.614,6.382,6.382,0,0,1-6.28-6.551A6.325,6.325,0,0,1-239.428,532.316Z" transform="translate(339.708 -517.682)"/></g><path d="M174.809,286.371l12.006-20.8a2.439,2.439,0,0,0-.882-3.325,2.407,2.407,0,0,0-3.309.882L170.46,284.2a75.9,75.9,0,0,0-61.923,0L96.374,263.131a2.432,2.432,0,0,0-4.207,2.442l12.006,20.8A71.686,71.686,0,0,0,67.13,343.079H211.868A71.666,71.666,0,0,0,174.809,286.371Zm-68.54,36.382a6.066,6.066,0,1,1,6.066-6.066A6.069,6.069,0,0,1,106.269,322.753Zm66.445,0a6.066,6.066,0,1,1,6.066-6.066A6.069,6.069,0,0,1,172.713,322.753Z" transform="translate(-0.072)" fill="#32de84"/></g></g></svg>