<svg xmlns="http://www.w3.org/2000/svg" width="34.998" height="34.998" viewBox="0 0 34.998 34.998"><defs><style>.a{fill:#718bc6;}.b{fill:#0bb4b4;}</style></defs><path class="a" d="M57.167,1.167H76.416V17.5h1.167V5.833h4.083V17.5h1.167V5.25a.583.583,0,0,0-.583-.583H77.582V.583A.583.583,0,0,0,77,0H56.583A.583.583,0,0,0,56,.583v5.25h1.167Zm0,0" transform="translate(-51.917)"/><path class="a" d="M77,386.333a.583.583,0,0,0,.583-.583V384H76.416v1.167H57.167V384H56v1.75a.583.583,0,0,0,.583.583H61.25v4.083a.583.583,0,0,0,.583.583H82.249a.583.583,0,0,0,.583-.583V384H81.665v5.833H62.416v-3.5Zm0,0" transform="translate(-51.917 -356.002)"/><path class="b" d="M.583,106.5h17.5a.583.583,0,0,0,.583-.583V96.583A.583.583,0,0,0,18.082,96H.583A.583.583,0,0,0,0,96.583v9.333A.583.583,0,0,0,.583,106.5Zm.583-9.333H17.5v1.3l-8.166,2.177L1.167,98.468Zm0,2.508,8.016,2.137a.579.579,0,0,0,.3,0L17.5,99.675v5.658H1.167Zm0,0" transform="translate(0 -89)"/><path class="a" d="M.583,264.166H12.249a.583.583,0,0,0,.583-.583v-7a.583.583,0,0,0-.583-.583H.583a.583.583,0,0,0-.583.583v7A.583.583,0,0,0,.583,264.166Zm.583-7h10.5V263H1.167Zm0,0" transform="translate(0 -237.334)"/><path class="a" d="M258.333,36.082a.587.587,0,0,0,.184-.03l1.75-.583a.584.584,0,0,0,.4-.554v-1.75a.584.584,0,0,0-.4-.554l-1.75-.583a.587.587,0,0,0-.369,0l-1.75.583a.584.584,0,0,0-.4.554v1.75a.584.584,0,0,0,.4.554l1.75.583A.587.587,0,0,0,258.333,36.082Zm-1.167-2.5,1.167-.389,1.167.389v.909l-1.167.389-1.167-.389Zm0,0" transform="translate(-237.334 -29.666)"/><path class="a" d="M99.177,288.6l-1.167-.583a.583.583,0,0,0-.521,0l-1.167.583a.583.583,0,0,0-.323.525v1.167a.583.583,0,0,0,.323.525l1.167.583a.583.583,0,0,0,.521,0l1.167-.583a.583.583,0,0,0,.323-.525v-1.167A.583.583,0,0,0,99.177,288.6Zm-.844,1.331-.583.292-.583-.292v-.445l.583-.292.583.292Zm0,0" transform="translate(-89 -266.962)"/><path class="a" d="M32,288h3.5v1.167H32Zm0,0" transform="translate(-29.667 -267.001)"/><path class="a" d="M32,320h3.5v1.167H32Zm0,0" transform="translate(-29.667 -296.668)"/><path class="b" d="M285.419,320H273.753a.583.583,0,0,0-.412.171l-1.167,1.167a.584.584,0,0,0,0,.825l1.167,1.167a.583.583,0,0,0,.412.171h11.666a1.75,1.75,0,0,0,0-3.5Zm-1.75,2.333h-9.675l-.583-.583.583-.583h9.675Zm1.75,0h-.583v-1.167h.583a.583.583,0,0,1,0,1.167Zm0,0" transform="translate(-252.17 -296.668)"/><path class="b" d="M285.419,256H273.753a.583.583,0,0,0-.412.171l-1.167,1.167a.584.584,0,0,0,0,.825l1.167,1.167a.583.583,0,0,0,.412.171h11.666a1.75,1.75,0,0,0,0-3.5Zm-1.75,2.333h-9.675l-.583-.583.583-.583h9.675Zm1.75,0h-.583v-1.167h.583a.583.583,0,0,1,0,1.167Zm0,0" transform="translate(-252.17 -237.334)"/><path class="a" d="M32,184h1.75v1.167H32Zm0,0" transform="translate(-29.667 -170.584)"/></svg>