<svg xmlns="http://www.w3.org/2000/svg" xmlns:xlink="http://www.w3.org/1999/xlink" width="54" height="53" viewBox="0 0 54 53"><defs><style>.a{clip-path:url(#a);}.b{fill:#708bc6;}</style><clipPath id="a"><rect width="54" height="53" transform="translate(-0.414 -0.048)"/></clipPath></defs><g class="a" transform="translate(0.414 0.048)"><g transform="translate(8.668 1.908)"><circle class="b" cx="1.157" cy="1.157" r="1.157" transform="translate(21.402 16.196)"/><circle class="b" cx="1.157" cy="1.157" r="1.157" transform="translate(12.918 16.196)"/><ellipse class="b" cx="1.542" cy="0.771" rx="1.542" ry="0.771" transform="translate(16.774 47.815)"/><path class="b" d="M77.325,31.288l-3.873.554A8.677,8.677,0,0,0,66,40.429v7.965a.964.964,0,0,0,.964.962H79.979a.964.964,0,0,0,0-1.928h-5.3V41.452a.964.964,0,1,0-1.928,0v5.976h-4.82v-7a6.781,6.781,0,0,1,5.8-6.68l2.622-.372a8.72,8.72,0,0,0,15.946,0l2.622.372a6.781,6.781,0,0,1,5.792,6.68v7H95.882V41.452a.964.964,0,1,0-1.928,0v5.976h-5.3a.964.964,0,1,0,0,1.928h13.015a.964.964,0,0,0,.964-.964V40.429a8.676,8.676,0,0,0-7.447-8.587l-3.875-.554a2.545,2.545,0,0,1-2.121-2.005,13.707,13.707,0,0,0,2.628-2.291h2.14A2.9,2.9,0,0,0,96.848,24.1V23.04a4.82,4.82,0,0,0-.018-9.449c.015-.43.018-.789.018-1.058a12.532,12.532,0,0,0-25.065,0c0,.056.038.865.047,1.053a4.82,4.82,0,0,0,.917,9.551h1.4a16.658,16.658,0,0,0,5.3,6.148,2.545,2.545,0,0,1-2.122,2.005ZM90.32,33.03a6.8,6.8,0,0,1-12,0,4.5,4.5,0,0,0,2.871-2.818,8.009,8.009,0,0,0,6.262,0,4.5,4.5,0,0,0,2.871,2.818Zm3.638-7.965h-.634a19.665,19.665,0,0,0,1.157-1.928h.439V24.1a.965.965,0,0,1-.964.964Zm4.82-6.748a2.9,2.9,0,0,1-2.892,2.892h-.532a22.161,22.161,0,0,0,1.211-4.679c.048-.326.091-.657.127-.988a2.9,2.9,0,0,1,2.086,2.778ZM84.316,1.928a10.6,10.6,0,0,1,10.6,10.6,25.063,25.063,0,0,1-.14,2.723,2.765,2.765,0,0,1-1.789-2.722.964.964,0,0,0-.963-.965h-3.4A5.981,5.981,0,0,1,83.25,8.245a.964.964,0,0,0-1.826.431,2.9,2.9,0,0,1-2.891,2.892H76.6a.964.964,0,0,0-.964.964,2.776,2.776,0,0,1-1.762,2.712q-.039-.41-.069-.851c-.044-.642-.07-1.241-.1-1.882a10.612,10.612,0,0,1,10.6-10.584ZM69.854,18.317a2.9,2.9,0,0,1,2.113-2.785c.033.338.071.664.114.983v.006a20.4,20.4,0,0,0,1.186,4.686h-.521a2.9,2.9,0,0,1-2.892-2.891Zm4.286-1.13A4.646,4.646,0,0,0,77.5,13.5H78.53a4.825,4.825,0,0,0,4.254-2.556A7.9,7.9,0,0,0,88.627,13.5h2.5a4.642,4.642,0,0,0,3.359,3.691,17.462,17.462,0,0,1-3.566,7.877H84.317a.964.964,0,1,0,0,1.928h4.732a7.5,7.5,0,0,1-4.732,1.928c-4.907,0-9.172-6.193-10.175-11.735Z" transform="translate(-66 0)"/></g></g></svg>