<svg xmlns="http://www.w3.org/2000/svg" xmlns:xlink="http://www.w3.org/1999/xlink" width="42.466" height="32.967" viewBox="0 0 42.466 32.967"><defs><style>.a{fill:#708bc6;}.b{fill:#0bb4b4;}.c{clip-path:url(#a);}</style><clipPath id="a"><rect width="22" height="23" transform="translate(-0.115 -0.437)"/></clipPath></defs><g transform="translate(-700 -1138.033)"><g transform="translate(717.033 1138.033)"><path class="a" d="M23.738,125v.848a.848.848,0,0,1,.848.848v12.717H.848V126.7a.848.848,0,0,1,.848-.848V125A1.7,1.7,0,0,0,0,126.7v14.412a1.7,1.7,0,0,0,1.7,1.7h8.332L9.01,146.194H8.054v.848h9.326v-.848h-.956L15.406,142.8h8.332a1.7,1.7,0,0,0,1.7-1.7V126.7A1.7,1.7,0,0,0,23.738,125Zm-8.2,21.194H9.9l1.017-3.391h3.608Zm9.047-5.087a.848.848,0,0,1-.848.848H1.7a.848.848,0,0,1-.848-.848v-.848H24.586Zm0,0" transform="translate(0 -121.609)"/><path class="b" d="M93.75,1.7v15.26H94.6V1.7a.848.848,0,0,1,.848-.848H112.4a.848.848,0,0,1,.848.848v15.26h.848V1.7A1.7,1.7,0,0,0,112.4,0H95.446A1.7,1.7,0,0,0,93.75,1.7Zm0,0" transform="translate(-91.207)"/><path class="b" d="M156.25,62.5h.848v.848h-.848Zm0,0" transform="translate(-152.011 -60.804)"/><path class="b" d="M218.75,62.5h.848v.848h-.848Zm0,0" transform="translate(-212.816 -60.804)"/><path class="b" d="M281.25,62.5h.848v.848h-.848Zm0,0" transform="translate(-273.62 -60.804)"/><path class="b" d="M156.25,125h16.956v.848H156.25Zm0,0" transform="translate(-152.011 -121.609)"/><path class="b" d="M161.337,188.348a.848.848,0,0,0-.848-.848H157.1a.848.848,0,0,0-.848.848v2.543a.848.848,0,0,0,.848.848h3.391a.848.848,0,0,0,.848-.848Zm-4.239,2.543v-2.543h3.391v2.543Zm0,0" transform="translate(-152.011 -182.413)"/><path class="b" d="M380.087,188.348a.848.848,0,0,0-.848-.848h-3.391a.848.848,0,0,0-.848.848v2.543a.848.848,0,0,0,.848.848h3.391a.848.848,0,0,0,.848-.848Zm-4.239,2.543v-2.543h3.391v2.543Zm0,0" transform="translate(-364.827 -182.413)"/><path class="b" d="M598.837,188.348a.848.848,0,0,0-.848-.848H594.6a.848.848,0,0,0-.848.848v2.543a.848.848,0,0,0,.848.848h3.391a.848.848,0,0,0,.848-.848Zm-4.239,2.543v-2.543h3.391v2.543Zm0,0" transform="translate(-577.642 -182.413)"/><path class="b" d="M161.337,375.848a.848.848,0,0,0-.848-.848H157.1a.848.848,0,0,0-.848.848v2.543a.848.848,0,0,0,.848.848h3.391a.848.848,0,0,0,.848-.848Zm-4.239,2.543v-2.543h3.391v2.543Zm0,0" transform="translate(-152.011 -364.827)"/><path class="b" d="M380.087,375.848a.848.848,0,0,0-.848-.848h-3.391a.848.848,0,0,0-.848.848v2.543a.848.848,0,0,0,.848.848h3.391a.848.848,0,0,0,.848-.848Zm-4.239,2.543v-2.543h3.391v2.543Zm0,0" transform="translate(-364.827 -364.827)"/><path class="b" d="M598.837,375.848a.848.848,0,0,0-.848-.848H594.6a.848.848,0,0,0-.848.848v2.543a.848.848,0,0,0,.848.848h3.391a.848.848,0,0,0,.848-.848Zm-4.239,2.543v-2.543h3.391v2.543Zm0,0" transform="translate(-577.642 -364.827)"/><path class="b" d="M161.337,564.2v-.848a.848.848,0,0,0-.848-.848H157.1a.848.848,0,0,0-.848.848v.848h.848v-.848h3.391v.848Zm0,0" transform="translate(-152.011 -547.24)"/><path class="b" d="M380.087,564.2v-.848a.848.848,0,0,0-.848-.848h-3.391a.848.848,0,0,0-.848.848v.848h.848v-.848h3.391v.848Zm0,0" transform="translate(-364.827 -547.24)"/><path class="b" d="M598.837,564.2v-.848a.848.848,0,0,0-.848-.848H594.6a.848.848,0,0,0-.848.848v.848h.848v-.848h3.391v.848Zm0,0" transform="translate(-577.642 -547.24)"/></g><g class="c" transform="translate(700.115 1148.437)"><g transform="translate(3.387 0.792)"><circle class="a" cx="0.484" cy="0.484" r="0.484" transform="translate(8.956 6.777)"/><circle class="a" cx="0.484" cy="0.484" r="0.484" transform="translate(5.406 6.777)"/><ellipse class="a" cx="0.645" cy="0.323" rx="0.645" ry="0.323" transform="translate(7.019 20.009)"/><path class="a" d="M70.739,13.093l-1.621.232A3.631,3.631,0,0,0,66,16.918v3.333a.4.4,0,0,0,.4.4h5.446a.4.4,0,1,0,0-.807H69.63v-2.5a.4.4,0,1,0-.807,0v2.5H66.807V16.918a2.838,2.838,0,0,1,2.425-2.8l1.1-.156a3.649,3.649,0,0,0,6.673,0l1.1.156a2.838,2.838,0,0,1,2.424,2.8v2.929H78.5v-2.5a.4.4,0,1,0-.807,0v2.5H75.479a.4.4,0,1,0,0,.807h5.446a.4.4,0,0,0,.4-.4V16.918a3.631,3.631,0,0,0-3.116-3.593l-1.622-.232a1.065,1.065,0,0,1-.888-.839,5.736,5.736,0,0,0,1.1-.959h.9a1.212,1.212,0,0,0,1.21-1.21V9.641A2.017,2.017,0,0,0,78.9,5.687c.006-.18.007-.33.007-.443a5.244,5.244,0,0,0-10.489,0c0,.024.016.362.02.441a2.017,2.017,0,0,0,.384,4h.586a6.971,6.971,0,0,0,2.216,2.573,1.065,1.065,0,0,1-.888.839Zm5.438.729a2.845,2.845,0,0,1-5.022,0,1.883,1.883,0,0,0,1.2-1.179,3.351,3.351,0,0,0,2.62,0,1.883,1.883,0,0,0,1.2,1.179ZM77.7,10.488h-.265a8.227,8.227,0,0,0,.484-.807H78.1v.4a.4.4,0,0,1-.4.4Zm2.017-2.824a1.212,1.212,0,0,1-1.21,1.21h-.223a9.273,9.273,0,0,0,.507-1.958c.02-.137.038-.275.053-.414a1.212,1.212,0,0,1,.873,1.162ZM73.665.807A4.434,4.434,0,0,1,78.1,5.244a10.485,10.485,0,0,1-.059,1.139,1.157,1.157,0,0,1-.748-1.139.4.4,0,0,0-.4-.4H75.469A2.5,2.5,0,0,1,73.218,3.45a.4.4,0,0,0-.764.18,1.211,1.211,0,0,1-1.21,1.21h-.807a.4.4,0,0,0-.4.4A1.162,1.162,0,0,1,69.3,6.379q-.016-.172-.029-.356c-.018-.269-.029-.519-.041-.787A4.441,4.441,0,0,1,73.665.807ZM67.613,7.665A1.212,1.212,0,0,1,68.5,6.5c.014.141.03.278.048.411v0a8.534,8.534,0,0,0,.5,1.961h-.218a1.212,1.212,0,0,1-1.21-1.21Zm1.793-.473a1.944,1.944,0,0,0,1.4-1.545h.433a2.019,2.019,0,0,0,1.78-1.07,3.3,3.3,0,0,0,2.445,1.07h1.048a1.943,1.943,0,0,0,1.406,1.545,7.307,7.307,0,0,1-1.492,3.3H73.665a.4.4,0,0,0,0,.807h1.98a3.14,3.14,0,0,1-1.98.807c-2.053,0-3.838-2.591-4.258-4.911Z" transform="translate(-66 0)"/></g></g></g></svg>