<svg xmlns="http://www.w3.org/2000/svg" xmlns:xlink="http://www.w3.org/1999/xlink" width="53" height="53" viewBox="0 0 53 53"><defs><style>.a{fill:#708bc6;}.b{clip-path:url(#a);}</style><clipPath id="a"><rect class="a" width="53" height="53" transform="translate(0.291 -0.048)"/></clipPath></defs><g class="b" transform="translate(-0.291 0.048)"><g transform="translate(2.14 2.14)"><path class="a" d="M48.448,2h-44A2.452,2.452,0,0,0,2,4.446V34.594A2.452,2.452,0,0,0,4.446,37.04h8.481a.422.422,0,0,1-.032.319l-2.053,3.414a2.446,2.446,0,0,0,.372,2.99l2.8,2.8a2.446,2.446,0,0,0,2.99.372l3.414-2.053a.479.479,0,0,1,.425-.008.461.461,0,0,1,.277.3l.961,3.862a2.446,2.446,0,0,0,2.371,1.85h3.977a2.446,2.446,0,0,0,2.371-1.85l.961-3.862a.479.479,0,0,1,.294-.309.471.471,0,0,1,.407.016l3.414,2.053a2.455,2.455,0,0,0,2.99-.372l2.8-2.8a2.446,2.446,0,0,0,.372-2.99L40,37.359a.465.465,0,0,1-.032-.319h8.482a2.452,2.452,0,0,0,2.446-2.446V4.446A2.452,2.452,0,0,0,48.448,2ZM44.373,33.324a.815.815,0,0,1-.619.792l-3.862.961a2.114,2.114,0,0,0-1.418,1.255A2.09,2.09,0,0,0,38.6,38.2l2.045,3.415a.8.8,0,0,1-.122.994l-2.811,2.811a.8.8,0,0,1-.994.122l-3.415-2.047a2.13,2.13,0,0,0-3.121,1.287l-.962,3.863a.815.815,0,0,1-.791.619H24.458a.815.815,0,0,1-.791-.619l-.961-3.862a2.114,2.114,0,0,0-1.255-1.418,2.17,2.17,0,0,0-.815-.163,2.008,2.008,0,0,0-1.051.294l-3.414,2.045a.8.8,0,0,1-.994-.122l-2.811-2.811a.8.8,0,0,1-.122-.994L14.288,38.2A2.13,2.13,0,0,0,13,35.076l-3.863-.961a.815.815,0,0,1-.619-.791V29.347a.815.815,0,0,1,.619-.791L13,27.6a2.114,2.114,0,0,0,1.418-1.255,2.09,2.09,0,0,0-.13-1.866L12.243,21.06a.8.8,0,0,1,.122-.994l2.811-2.811a.8.8,0,0,1,.994-.122l3.414,2.045a2.13,2.13,0,0,0,3.121-1.287l.961-3.863a.815.815,0,0,1,.791-.619h3.977a.815.815,0,0,1,.789.619l.961,3.862a2.114,2.114,0,0,0,1.255,1.418,2.09,2.09,0,0,0,1.866-.13l3.415-2.045a.815.815,0,0,1,.994.122l2.811,2.811a.8.8,0,0,1,.122.994L38.6,24.474A2.13,2.13,0,0,0,39.89,27.6l3.862.961a.815.815,0,0,1,.619.791Zm4.892,1.271a.815.815,0,0,1-.815.815H44.824A2.436,2.436,0,0,0,46,33.324V29.347a2.446,2.446,0,0,0-1.85-2.371l-3.862-.961a.479.479,0,0,1-.277-.2c-.008-.024-.024-.065-.032-.09A.471.471,0,0,1,40,25.313L42.053,21.9a2.446,2.446,0,0,0-.372-2.99l-2.8-2.8a2.446,2.446,0,0,0-2.99-.372l-3.42,2.05a.479.479,0,0,1-.425.008.461.461,0,0,1-.277-.3L30.8,13.628a2.446,2.446,0,0,0-2.371-1.85H24.458a2.446,2.446,0,0,0-2.371,1.85l-.961,3.862a.479.479,0,0,1-.294.309.471.471,0,0,1-.407-.016L17.01,15.73a2.455,2.455,0,0,0-2.99.372l-2.8,2.806a2.446,2.446,0,0,0-.372,2.99L12.9,25.313a.479.479,0,0,1,.008.425.461.461,0,0,1-.3.277l-3.862.961a2.446,2.446,0,0,0-1.85,2.371v3.977a2.436,2.436,0,0,0,1.181,2.086H4.446a.815.815,0,0,1-.816-.817V10.148H49.263Zm0-26.076H3.63V4.446a.815.815,0,0,1,.816-.816h44a.815.815,0,0,1,.815.816Z" transform="translate(-2 -2)"/><path class="a" d="M6,6H7.63V7.63H6Z" transform="translate(-2.741 -2.741)"/><path class="a" d="M10,6h1.63V7.63H10Z" transform="translate(-3.481 -2.741)"/><path class="a" d="M14,6h1.63V7.63H14Z" transform="translate(-4.221 -2.741)"/><path class="a" d="M29.778,26a9.779,9.779,0,1,0,9.778,9.779A9.779,9.779,0,0,0,29.778,26Zm0,17.927a8.148,8.148,0,1,1,8.148-8.148A8.148,8.148,0,0,1,29.778,43.927Z" transform="translate(-5.332 -6.443)"/><path class="a" d="M31,37h1.63v1.63H31Z" transform="translate(-7.369 -8.48)"/><path class="a" d="M35,37h1.63v1.63H35Z" transform="translate(-8.109 -8.48)"/><path class="a" d="M27,37h1.63v1.63H27Z" transform="translate(-6.628 -8.48)"/></g></g></svg>