<svg xmlns="http://www.w3.org/2000/svg" xmlns:xlink="http://www.w3.org/1999/xlink" width="54" height="54" viewBox="0 0 54 54"><defs><style>.a{clip-path:url(#a);}.b{fill:#708bc6;}</style><clipPath id="a"><rect width="54" height="54" transform="translate(-0.414 -0.397)"/></clipPath></defs><g class="a" transform="translate(0.414 0.397)"><g transform="translate(12.531 0.638)"><path class="b" d="M145.257,8H123.367A3.372,3.372,0,0,0,120,11.367V56.829a3.372,3.372,0,0,0,3.367,3.367h21.889a3.372,3.372,0,0,0,3.367-3.367V11.367A3.372,3.372,0,0,0,145.257,8Zm-7,1.684-.474,1.684h-7.021l-.421-1.684Zm8.688,47.145a1.686,1.686,0,0,1-1.684,1.684H123.367a1.686,1.686,0,0,1-1.684-1.684V11.367a1.686,1.686,0,0,1,1.684-1.684H128.6l.682,2.729a.842.842,0,0,0,.818.638h8.315a.842.842,0,0,0,.811-.614L140,9.683h5.255a1.686,1.686,0,0,1,1.684,1.684Z" transform="translate(-120 -8)"/><path class="b" d="M158.717,456h-5.892a.842.842,0,1,0,0,1.684h5.892a.842.842,0,1,0,0-1.684Z" transform="translate(-148.615 -408.854)"/><path class="b" d="M233.666,456h-.842a.842.842,0,1,0,0,1.684h.842a.842.842,0,1,0,0-1.684Z" transform="translate(-220.195 -408.854)"/><path class="b" d="M230.311,208.119a.842.842,0,0,0-1.155.289l-5.052,8.419a.842.842,0,1,0,1.444.865l5.052-8.419a.842.842,0,0,0-.289-1.155Z" transform="translate(-213.041 -186.952)"/><path class="b" d="M297.494,208.306a.842.842,0,1,0-1.315,1.053l2.947,3.68-2.947,3.68a.842.842,0,1,0,1.315,1.053l3.369-4.208a.842.842,0,0,0,0-1.053Z" transform="translate(-277.471 -186.944)"/><path class="b" d="M171.55,217.781a.842.842,0,0,0,1.314-1.052l-2.947-3.68,2.947-3.68a.842.842,0,1,0-1.315-1.053l-3.367,4.209a.842.842,0,0,0,0,1.052Z" transform="translate(-162.947 -186.946)"/></g></g></svg>