<svg xmlns="http://www.w3.org/2000/svg" width="35" height="35" viewBox="0 0 35 35"><defs><style>.a{fill:#718bc6;}.b{fill:#0bb4b4;}</style></defs><g transform="translate(0)"><path class="a" d="M256.835,279H270.19a.835.835,0,0,0,0-1.669H256.835a.835.835,0,0,0,0,1.669Z" transform="translate(-241.033 -258.494)"/><path class="a" d="M35,13.854V10.938a3.614,3.614,0,0,0-.557-1.915.572.572,0,0,0-.02-.054L29.913,1.721A3.626,3.626,0,0,0,26.817,0H8.184a3.624,3.624,0,0,0-3.1,1.721L.579,8.969C.57,8.983.57,9,.561,9.015A3.609,3.609,0,0,0,0,10.938v2.917a3.632,3.632,0,0,0,1.482,2.917A3.63,3.63,0,0,0,0,19.688V22.6a3.632,3.632,0,0,0,1.482,2.917A3.63,3.63,0,0,0,0,28.438v2.917A3.651,3.651,0,0,0,3.646,35h9.561a.729.729,0,1,0,0-1.458H3.646a2.19,2.19,0,0,1-2.187-2.187V28.438A2.189,2.189,0,0,1,3.646,26.25h12.2a.729.729,0,1,0,0-1.458H3.646A2.19,2.19,0,0,1,1.458,22.6V19.688A2.189,2.189,0,0,1,3.646,17.5H31.354a2.19,2.19,0,0,1,2.187,2.188V22.6a2.169,2.169,0,0,1-.23.954.729.729,0,1,0,1.31.642A3.587,3.587,0,0,0,35,22.6V19.688a3.632,3.632,0,0,0-1.482-2.917A3.634,3.634,0,0,0,35,13.854ZM6.326,2.491A2.172,2.172,0,0,1,8.183,1.458H26.816a2.176,2.176,0,0,1,1.858,1.033l3.009,4.834a3.042,3.042,0,0,0-.328-.034H3.646c-.112,0-.219.022-.328.032ZM33.542,13.854a2.19,2.19,0,0,1-2.188,2.187H3.646a2.19,2.19,0,0,1-2.187-2.187V10.938A2.189,2.189,0,0,1,3.646,8.75H31.354a2.189,2.189,0,0,1,2.187,2.188v2.917Z" transform="translate(0)"/><path class="a" d="M42.667,407.837a2.5,2.5,0,1,0,2.5-2.5A2.507,2.507,0,0,0,42.667,407.837Zm3.339,0a.835.835,0,1,1-.835-.835A.835.835,0,0,1,46.006,407.837Z" transform="translate(-39.328 -378.68)"/><path class="b" d="M230.863,323.339c-.152,0-.3.008-.452.022a7.488,7.488,0,0,0-13.7,3.394,4.174,4.174,0,0,0,.8,8.27h13.355a5.843,5.843,0,1,0,0-11.686Zm0,10.017H217.508a2.5,2.5,0,0,1,0-5.008.835.835,0,0,0,.835-.835,5.822,5.822,0,0,1,10.915-2.841.834.834,0,0,0,.875.412,4.226,4.226,0,0,1,.731-.075,4.174,4.174,0,1,1,0,8.347Z" transform="translate(-201.706 -300.025)"/><path class="a" d="M270.19,149.333H256.835a.835.835,0,1,0,0,1.669H270.19a.835.835,0,1,0,0-1.669Z" transform="translate(-241.033 -139.189)"/><path class="a" d="M270.19,192H256.835a.835.835,0,1,0,0,1.669H270.19a.835.835,0,1,0,0-1.669Z" transform="translate(-241.033 -178.958)"/><path class="a" d="M45.171,149.333a2.5,2.5,0,1,0,2.5,2.5A2.506,2.506,0,0,0,45.171,149.333Zm0,3.339a.835.835,0,1,1,.835-.835A.835.835,0,0,1,45.171,152.672Z" transform="translate(-39.328 -139.336)"/><path class="a" d="M42.667,279.837a2.5,2.5,0,1,0,2.5-2.5A2.507,2.507,0,0,0,42.667,279.837Zm3.339,0a.835.835,0,1,1-.835-.835A.835.835,0,0,1,46.006,279.837Z" transform="translate(-39.328 -258.767)"/></g></svg>