<svg xmlns="http://www.w3.org/2000/svg" xmlns:xlink="http://www.w3.org/1999/xlink" width="53" height="53" viewBox="0 0 53 53"><defs><style>.a{clip-path:url(#a);}.b{fill:#708bc6;}</style><clipPath id="a"><rect width="53" height="53" transform="translate(0.291 0.071)"/></clipPath></defs><g class="a" transform="translate(-0.291 -0.071)"><g transform="translate(0.284 7.261)"><g transform="translate(0 32.756)"><g transform="translate(0 0)"><path class="b" d="M52.965,360.408a.885.885,0,0,0-.733-.389H31.87a.885.885,0,0,0-.885.885v1.771H21.248V360.9a.885.885,0,0,0-.885-.885H.886a.885.885,0,0,0-.822,1.215l.3.756a6.161,6.161,0,0,0,5.573,4.229h41.24a6.181,6.181,0,0,0,5.579-4.229l.3-.756a.885.885,0,0,0-.094-.824ZM5.938,364.446a4.291,4.291,0,0,1-3.725-2.656H19.477v1.771a.885.885,0,0,0,.886.885Zm41.24,0H31.87a.885.885,0,0,0,.885-.885v-1.771H50.9a4.294,4.294,0,0,1-3.725,2.656Z" transform="translate(0 -360.019)"/></g></g><g transform="translate(2.656)"><path class="b" d="M70.926,64.018H24.891a.885.885,0,0,0-.885.885V95a.885.885,0,0,0,.885.885H70.926A.885.885,0,0,0,71.811,95V64.9A.885.885,0,0,0,70.926,64.018Zm-.885,30.1H25.774V65.789H70.042Z" transform="translate(-24.006 -64.018)"/></g></g></g></svg>