<svg xmlns="http://www.w3.org/2000/svg" xmlns:xlink="http://www.w3.org/1999/xlink" width="150" height="143.75" viewBox="0 0 150 143.75"><defs><clipPath id="a"><circle cx="70" cy="70" r="70" transform="translate(0 0)"/></clipPath><linearGradient id="b" x1="0.045" y1="0.621" x2="0.369" y2="0.337" gradientUnits="objectBoundingBox"><stop offset="0" stop-color="#a52714" stop-opacity="0.6"/><stop offset="0.66" stop-color="#a52714" stop-opacity="0"/></linearGradient><linearGradient id="e" x1="0.839" y1="0.878" x2="0.363" y2="0.664" gradientUnits="objectBoundingBox"><stop offset="0" stop-color="#055524" stop-opacity="0.4"/><stop offset="0.33" stop-color="#055524" stop-opacity="0"/></linearGradient><clipPath id="h"><path d="M8,151.391H74.645l30.933-30.933V97.292H50.452L8,24.48Z" transform="translate(-8 -24.48)"/></clipPath><linearGradient id="i" x1="0.326" y1="-0.048" x2="0.486" y2="0.454" gradientUnits="objectBoundingBox"><stop offset="0" stop-color="#ea6100" stop-opacity="0.302"/><stop offset="0.66" stop-color="#ea6100" stop-opacity="0"/></linearGradient><clipPath id="m"><path d="M95.137,56,122.7,103.735l-30.933,54.1h73.378V56Z" transform="translate(-91.77 -56)"/></clipPath><radialGradient id="p" cx="-44.656" cy="-109.344" r="4.006" gradientTransform="translate(-30.466) scale(0.267 1)" gradientUnits="objectBoundingBox"><stop offset="0" stop-color="#3e2723" stop-opacity="0.2"/><stop offset="1" stop-color="#3e2723" stop-opacity="0"/></radialGradient><clipPath id="r"><path d="M21.97,8V40.093L53.307,93.925,80.873,46.189h70.012V8Z" transform="translate(-21.97 -8)"/></clipPath><radialGradient id="u" cx="3.863" cy="7.209" r="1.156" gradientTransform="translate(-0.646) scale(1.18 1)" xlink:href="#p"/><clipPath id="z"><rect width="150" height="143.75"/></clipPath></defs><g id="y" clip-path="url(#z)"><g transform="translate(-10 -13)"><g transform="translate(15 15)" clip-path="url(#a)"><path d="M21.97,8V93.925H53.307L80.873,46.189h70.012V8Z" transform="translate(-10.317 -7.462)" fill="#db4437"/><path d="M21.97,8V93.925H53.307L80.873,46.189h70.012V8Z" transform="translate(-10.317 -7.462)" fill="url(#b)"/></g><g transform="translate(15 15)" clip-path="url(#a)"><path d="M54.049,101.688,22.361,47.34l-.461.809,31.459,53.928Z" transform="translate(-10.303 -15.502)" fill="rgba(62,39,35,0.15)"/></g><g transform="translate(15 15)" clip-path="url(#a)"><path d="M8,151.391H74.645l30.933-30.933V97.292H50.452L8,24.48Z" transform="translate(-7.462 -10.829)" fill="#0f9d58"/><path d="M8,151.391H74.645l30.933-30.933V97.292H50.452L8,24.48Z" transform="translate(-7.462 -10.829)" fill="url(#e)"/></g><g transform="translate(15 15)" clip-path="url(#a)"><path d="M121.823,117.233l-.66-.383L90.62,170.274h.915l30.31-53.019Z" transform="translate(-24.352 -29.712)" fill="rgba(38,50,56,0.15)"/></g><g transform="translate(15 15)" clip-path="url(#a)"><g transform="translate(0.538 13.651)" clip-path="url(#h)"><path d="M95.137,56,122.7,103.735l-30.933,54.1h73.378V56Z" transform="translate(-25.125 -30.923)" fill="#ffcd40"/><path d="M95.137,56,122.7,103.735l-30.933,54.1h73.378V56Z" transform="translate(-25.125 -30.923)" fill="url(#i)"/></g></g><g transform="translate(15 15)" clip-path="url(#a)"><path d="M95.137,56,122.7,103.735l-30.933,54.1h73.378V56Z" transform="translate(-24.587 -17.273)" fill="#ffcd40"/><path d="M95.137,56,122.7,103.735l-30.933,54.1h73.378V56Z" transform="translate(-24.587 -17.273)" fill="url(#i)"/></g><g transform="translate(15 15)" clip-path="url(#a)"><g transform="translate(67.183 38.727)" clip-path="url(#m)"><path d="M21.97,8V93.925H53.307L80.873,46.189h70.012V8Z" transform="translate(-77.503 -46.189)" fill="#db4437"/><path d="M21.97,8V93.925H53.307L80.873,46.189h70.012V8Z" transform="translate(-77.503 -46.189)" fill="url(#b)"/></g></g><g transform="translate(15 15)" clip-path="url(#a)"><path d="M96,56V72.669L158.373,56Z" transform="translate(-25.45 -17.273)" fill="url(#p)"/></g><g transform="translate(15 15)" clip-path="url(#a)"><g transform="translate(11.653 0.538)" clip-path="url(#r)"><path d="M8,151.391H74.645l30.933-30.933V97.292H50.452L8,24.48Z" transform="translate(-19.115 -11.368)" fill="#0f9d58"/><path d="M8,151.391H74.645l30.933-30.933V97.292H50.452L8,24.48Z" transform="translate(-19.115 -11.368)" fill="url(#e)"/></g></g><g transform="translate(15 15)" clip-path="url(#a)"><path d="M21.97,48.45,67.518,93.989l-14.208,8.2Z" transform="translate(-10.317 -15.731)" fill="url(#u)"/></g><g transform="translate(15 15)" clip-path="url(#a)"><circle cx="31.823" cy="31.823" r="31.823" transform="translate(38.727 38.727)" fill="#f1f1f1"/><circle cx="25.459" cy="25.459" r="25.459" transform="translate(45.091 45.091)" fill="#4285f4"/></g><g transform="translate(15 15)" clip-path="url(#a)"><path d="M87.823,55A31.825,31.825,0,0,0,56,86.816v.8A31.825,31.825,0,0,1,87.816,55.8h70.015V55Z" transform="translate(-17.273 -17.069)" fill="rgba(62,39,35,0.2)"/><path d="M105.54,97.292a31.773,31.773,0,0,1-55.076,0h-.031L8,24.48v.8L50.452,98.089h.031a31.773,31.773,0,0,0,55.076,0h.04v-.8h-.047Z" transform="translate(-7.462 -10.829)" fill="rgba(255,255,255,0.1)"/><path d="M96.9,56c-.134,0-.261.016-.4.025a31.8,31.8,0,1,1,0,63.6c.134,0,.261.022.4.022A31.825,31.825,0,1,0,96.9,56Z" transform="translate(-25.552 -17.274)" fill="#3e2723" opacity="0.1"/><path d="M122.98,110.78a31.717,31.717,0,0,0,2.785-25.5,31.471,31.471,0,0,1-3.077,24.417v.031l-30.917,54.1H92.7l30.3-53.019v-.031Z" transform="translate(-24.587 -23.259)" fill="rgba(255,255,255,0.2)"/></g><g transform="translate(15 15)" clip-path="url(#a)"><path d="M78.012,8.8a70.012,70.012,0,0,1,70.012,69.615v-.4A70.012,70.012,0,1,0,8,78.012v.4A70.012,70.012,0,0,1,78.012,8.8Z" transform="translate(-7.462 -7.462)" fill="rgba(255,255,255,0.2)"/><path d="M78.012,165.114A70.012,70.012,0,0,0,148.023,95.5v.4A70.012,70.012,0,1,1,8,95.9v-.4a70.012,70.012,0,0,0,70.012,69.613Z" transform="translate(-7.462 -25.349)" fill="rgba(62,39,35,0.15)"/></g></g></g></svg>