<svg xmlns="http://www.w3.org/2000/svg" width="34.6" height="31.251" viewBox="0 0 34.6 31.251"><defs><style>.a{fill:#718bc6;}.b{fill:#0bb4b4;}</style></defs><g transform="translate(-8 -32)"><path class="a" d="M40.646,32H9.953A1.955,1.955,0,0,0,8,33.953v22.88a1.955,1.955,0,0,0,1.953,1.953H20.569l-.67,1.674h-2.97a.558.558,0,0,0-.558.558v1.674a.558.558,0,0,0,.558.558H33.671a.558.558,0,0,0,.558-.558V61.019a.558.558,0,0,0-.558-.558H30.7l-.67-1.674H40.646A1.955,1.955,0,0,0,42.6,56.834V33.953A1.955,1.955,0,0,0,40.646,32ZM33.113,61.577v.558H17.487v-.558ZM21.1,60.461l.67-1.674h7.057l.67,1.674Zm20.382-3.627a.838.838,0,0,1-.837.837H9.953a.838.838,0,0,1-.837-.837v-1.4H41.483Zm0-2.511H9.116V33.953a.838.838,0,0,1,.837-.837H40.646a.838.838,0,0,1,.837.837Z" transform="translate(0 0)"/><path class="b" d="M53.672,64H41.953A1.955,1.955,0,0,0,40,65.953V81.021a1.955,1.955,0,0,0,1.953,1.953H53.672a1.955,1.955,0,0,0,1.953-1.953V65.953A1.955,1.955,0,0,0,53.672,64Zm-1.4,17.858H51.161V79.626a.558.558,0,1,0-1.116,0v2.232H45.581V79.626a.558.558,0,1,0-1.116,0v2.232H43.348v-2.79a2.235,2.235,0,0,1,2.232-2.232h.654a1.673,1.673,0,0,0,3.156,0h.654a2.235,2.235,0,0,1,2.232,2.232ZM46.024,71.274a10.378,10.378,0,0,0,4.022-.892v1.989a2.232,2.232,0,0,1-4.464,0V71.26C45.712,71.269,45.859,71.274,46.024,71.274Zm-.443-1.133v0a2.235,2.235,0,0,1,2.232-2.232,2.262,2.262,0,0,1,2.024,1.349,10.044,10.044,0,0,1-3.258.88,6.443,6.443,0,0,1-1,.006Zm2.79,5.53v.605a.558.558,0,1,1-1.116,0v-.605A3.307,3.307,0,0,0,48.371,75.672Zm6.139,5.349a.838.838,0,0,1-.837.837h-.279v-2.79a3.352,3.352,0,0,0-3.348-3.348h-.558v-.451a3.349,3.349,0,0,0,1.674-2.9V70.139c0-.016,0-.031,0-.047a3.431,3.431,0,0,0-.972-2.278,3.282,3.282,0,0,0-2.375-1.023,3.352,3.352,0,0,0-3.348,3.348v2.232a3.349,3.349,0,0,0,1.674,2.9v.451h-.558a3.352,3.352,0,0,0-3.348,3.348v2.79h-.279a.838.838,0,0,1-.837-.837V65.953a.838.838,0,0,1,.837-.837H53.672a.838.838,0,0,1,.837.837Z" transform="translate(-29.768 -29.768)"/><path class="b" d="M291.44,64h-9.487A1.955,1.955,0,0,0,280,65.953V81.021a1.955,1.955,0,0,0,1.953,1.953h9.487a1.955,1.955,0,0,0,1.953-1.953V65.953A1.955,1.955,0,0,0,291.44,64Zm.837,17.021a.838.838,0,0,1-.837.837h-9.487a.838.838,0,0,1-.837-.837V67.906h11.161ZM281.116,66.79v-.837a.838.838,0,0,1,.837-.837h9.487a.838.838,0,0,1,.837.837v.837Z" transform="translate(-253.026 -29.768)"/><path class="a" d="M304.558,138.79h2.232a.558.558,0,0,0,.558-.558v-1.674a.558.558,0,0,0-.558-.558h-2.232a.558.558,0,0,0-.558.558v1.674A.558.558,0,0,0,304.558,138.79Zm.558-1.674h1.116v.558h-1.116Z" transform="translate(-275.352 -96.745)"/><path class="a" d="M360.558,137.116h5.022a.558.558,0,1,0,0-1.116h-5.022a.558.558,0,1,0,0,1.116Z" transform="translate(-327.445 -96.745)"/><path class="a" d="M360.558,161.116h2.232a.558.558,0,0,0,0-1.116h-2.232a.558.558,0,1,0,0,1.116Z" transform="translate(-327.445 -119.071)"/><path class="a" d="M304.558,186.79h2.232a.558.558,0,0,0,.558-.558v-1.674a.558.558,0,0,0-.558-.558h-2.232a.558.558,0,0,0-.558.558v1.674A.558.558,0,0,0,304.558,186.79Zm.558-1.674h1.116v.558h-1.116Z" transform="translate(-275.352 -141.397)"/><path class="a" d="M360.558,185.116h5.022a.558.558,0,1,0,0-1.116h-5.022a.558.558,0,1,0,0,1.116Z" transform="translate(-327.445 -141.397)"/><path class="a" d="M360.558,209.116h2.232a.558.558,0,0,0,0-1.116h-2.232a.558.558,0,1,0,0,1.116Z" transform="translate(-327.445 -163.723)"/><path class="a" d="M304.558,234.79h2.232a.558.558,0,0,0,.558-.558v-1.674a.558.558,0,0,0-.558-.558h-2.232a.558.558,0,0,0-.558.558v1.674A.558.558,0,0,0,304.558,234.79Zm.558-1.674h1.116v.558h-1.116Z" transform="translate(-275.352 -186.049)"/><path class="a" d="M360.558,233.116h5.022a.558.558,0,1,0,0-1.116h-5.022a.558.558,0,1,0,0,1.116Z" transform="translate(-327.445 -186.049)"/><path class="a" d="M360.558,257.116h2.232a.558.558,0,0,0,0-1.116h-2.232a.558.558,0,1,0,0,1.116Z" transform="translate(-327.445 -208.374)"/></g></svg>